<svg xmlns="http://www.w3.org/2000/svg" viewBox="0 0 1080 2700" width="1080" height="2700">
<rect width="1080" height="2700" fill="#FFFFFF"/>

<text x="540" y="200" fill="#F5583E" font-family="'AppleSDGothicNeoB00','Apple SD Gothic Neo','Malgun Gothic','Noto Sans CJK KR',sans-serif" font-size="30" font-weight="800" letter-spacing="16" text-anchor="middle">B E F O R E   v s   A F T E R</text>
<text x="540" y="340" fill="#1A1A1A" font-family="'AppleSDGothicNeoB00','Apple SD Gothic Neo','Malgun Gothic','Noto Sans CJK KR',sans-serif" font-size="90" font-weight="900" letter-spacing="-3" text-anchor="middle">목소리가</text>
<text x="540" y="450" fill="#1A1A1A" font-family="'AppleSDGothicNeoB00','Apple SD Gothic Neo','Malgun Gothic','Noto Sans CJK KR',sans-serif" font-size="90" font-weight="900" letter-spacing="-3" text-anchor="middle">노래로 바뀝니다</text>

<!-- BEFORE -->
<g transform="translate(540, 680)">
  <rect x="-440" y="0" width="880" height="480" rx="32" fill="#FFF" stroke="#E5E7EB" stroke-width="3"/>
  <text x="-380" y="80" fill="#525963" font-family="'AppleSDGothicNeoB00','Apple SD Gothic Neo','Malgun Gothic','Noto Sans CJK KR',sans-serif" font-size="28" font-weight="800" letter-spacing="4">BEFORE</text>
  <text x="-380" y="170" fill="#1A1A1A" font-family="'AppleSDGothicNeoB00','Apple SD Gothic Neo','Malgun Gothic','Noto Sans CJK KR',sans-serif" font-size="60" font-weight="900">가족 목소리 30초</text>
  <g transform="translate(-380, 260)">
<rect x="0" y="35.0" width="10" height="30" rx="5" fill="#BDBDBD"/><rect x="16" y="20.61723384187391" width="10" height="59" rx="5" fill="#BDBDBD"/><rect x="32" y="9.755870455763102" width="10" height="80" rx="5" fill="#BDBDBD"/><rect x="48" y="5.075150401878368" width="10" height="90" rx="5" fill="#BDBDBD"/><rect x="64" y="7.721077195229547" width="10" height="85" rx="5" fill="#BDBDBD"/><rect x="80" y="17.04583567688131" width="10" height="66" rx="5" fill="#BDBDBD"/><rect x="96" y="30.766399758203985" width="10" height="38" rx="5" fill="#BDBDBD"/><rect x="112" y="24.476503169311407" width="10" height="51" rx="5" fill="#BDBDBD"/><rect x="128" y="12.29592514076215" width="10" height="75" rx="5" fill="#BDBDBD"/><rect x="144" y="5.67409647004709" width="10" height="89" rx="5" fill="#BDBDBD"/><rect x="160" y="6.232271760105846" width="10" height="88" rx="5" fill="#BDBDBD"/><rect x="176" y="13.83379023288824" width="10" height="72" rx="5" fill="#BDBDBD"/><rect x="192" y="26.617535054032224" width="10" height="47" rx="5" fill="#BDBDBD"/><rect x="208" y="28.546400357365535" width="10" height="43" rx="5" fill="#BDBDBD"/><rect x="224" y="15.290402038436326" width="10" height="69" rx="5" fill="#BDBDBD"/><rect x="240" y="6.860000696757837" width="10" height="86" rx="5" fill="#BDBDBD"/><rect x="256" y="5.319252601298544" width="10" height="89" rx="5" fill="#BDBDBD"/><rect x="272" y="11.045386621295293" width="10" height="78" rx="5" fill="#BDBDBD"/><rect x="288" y="22.636445442747302" width="10" height="55" rx="5" fill="#BDBDBD"/><rect x="304" y="32.74546638614572" width="10" height="35" rx="5" fill="#BDBDBD"/><rect x="320" y="18.679366673318906" width="10" height="63" rx="5" fill="#BDBDBD"/><rect x="336" y="8.609127200849898" width="10" height="83" rx="5" fill="#BDBDBD"/><rect x="352" y="5.000293803478897" width="10" height="90" rx="5" fill="#BDBDBD"/><rect x="368" y="8.736434759347148" width="10" height="83" rx="5" fill="#BDBDBD"/><rect x="384" y="18.90281245998695" width="10" height="62" rx="5" fill="#BDBDBD"/><rect x="400" y="33.01034307946398" width="10" height="34" rx="5" fill="#BDBDBD"/><rect x="416" y="22.394988895200772" width="10" height="55" rx="5" fill="#BDBDBD"/><rect x="432" y="10.886467203451375" width="10" height="78" rx="5" fill="#BDBDBD"/><rect x="448" y="5.281779329153892" width="10" height="89" rx="5" fill="#BDBDBD"/><rect x="464" y="6.9531483342595095" width="10" height="86" rx="5" fill="#BDBDBD"/><rect x="480" y="15.491364795286493" width="10" height="69" rx="5" fill="#BDBDBD"/><rect x="496" y="28.805975541866104" width="10" height="42" rx="5" fill="#BDBDBD"/><rect x="512" y="26.362900500048042" width="10" height="47" rx="5" fill="#BDBDBD"/><rect x="528" y="13.64643972892631" width="10" height="73" rx="5" fill="#BDBDBD"/><rect x="544" y="6.158075243613297" width="10" height="88" rx="5" fill="#BDBDBD"/><rect x="560" y="5.731219835955272" width="10" height="89" rx="5" fill="#BDBDBD"/><rect x="576" y="12.470382596849717" width="10" height="75" rx="5" fill="#BDBDBD"/><rect x="592" y="24.725581445911622" width="10" height="51" rx="5" fill="#BDBDBD"/><rect x="608" y="30.50368371011143" width="10" height="39" rx="5" fill="#BDBDBD"/><rect x="624" y="16.833803908411966" width="10" height="66" rx="5" fill="#BDBDBD"/><rect x="640" y="7.61164247817117" width="10" height="85" rx="5" fill="#BDBDBD"/><rect x="656" y="5.095106171636019" width="10" height="90" rx="5" fill="#BDBDBD"/><rect x="672" y="9.900330843918326" width="10" height="80" rx="5" fill="#BDBDBD"/><rect x="688" y="20.850829907174116" width="10" height="58" rx="5" fill="#BDBDBD"/><rect x="704" y="34.73446072128788" width="10" height="31" rx="5" fill="#BDBDBD"/><rect x="720" y="20.38476462618471" width="10" height="59" rx="5" fill="#BDBDBD"/><rect x="736" y="9.61338787474488" width="10" height="81" rx="5" fill="#BDBDBD"/><rect x="752" y="5.057539160618113" width="10" height="90" rx="5" fill="#BDBDBD"/>
  </g>
  <text x="-380" y="430" fill="#525963" font-family="'AppleSDGothicNeoR00','Apple SD Gothic Neo','Malgun Gothic','Noto Sans CJK KR',sans-serif" font-size="26" font-weight="500">전화 녹음·영상·일상 대화 OK</text>
</g>

<!-- Arrow transformation -->
<g transform="translate(540, 1250)">
  <circle cx="0" cy="0" r="80" fill="#F5583E"/>
  <path d="M -24 -14 L 20 0 L -24 14 Z" fill="#FFF"/>
</g>

<!-- AFTER -->
<g transform="translate(540, 1420)">
  <rect x="-440" y="0" width="880" height="540" rx="32" fill="#FFF1ED" stroke="#F5583E" stroke-width="4"/>
  <text x="-380" y="80" fill="#F5583E" font-family="'AppleSDGothicNeoB00','Apple SD Gothic Neo','Malgun Gothic','Noto Sans CJK KR',sans-serif" font-size="28" font-weight="800" letter-spacing="4">AFTER</text>
  <text x="-380" y="170" fill="#1A1A1A" font-family="'AppleSDGothicNeoB00','Apple SD Gothic Neo','Malgun Gothic','Noto Sans CJK KR',sans-serif" font-size="60" font-weight="900">완성된 노래 3분</text>
  <g transform="translate(-380, 260)">
<rect x="0" y="42.0" width="10" height="36" rx="5" fill="#F5583E"/><rect x="16" y="31.249535861640958" width="10" height="58" rx="5" fill="#F5583E"/><rect x="32" y="41.15351180735783" width="10" height="38" rx="5" fill="#F5583E"/><rect x="48" y="13.216540412960505" width="10" height="94" rx="5" fill="#F5583E"/><rect x="64" y="-2.269619276512344" width="10" height="125" rx="5" fill="#F5583E"/><rect x="80" y="13.057073826288459" width="10" height="94" rx="5" fill="#F5583E"/><rect x="96" y="38.60115260652665" width="10" height="43" rx="5" fill="#F5583E"/><rect x="112" y="19.741715632780142" width="10" height="81" rx="5" fill="#F5583E"/><rect x="128" y="27.02826695861026" width="10" height="66" rx="5" fill="#F5583E"/><rect x="144" y="41.76984480056688" width="10" height="36" rx="5" fill="#F5583E"/><rect x="160" y="39.70324628302496" width="10" height="41" rx="5" fill="#F5583E"/><rect x="176" y="18.2527123449091" width="10" height="83" rx="5" fill="#F5583E"/><rect x="192" y="3.379646467497956" width="10" height="113" rx="5" fill="#F5583E"/><rect x="208" y="17.087825887842328" width="10" height="86" rx="5" fill="#F5583E"/><rect x="224" y="33.025080352461906" width="10" height="54" rx="5" fill="#F5583E"/><rect x="240" y="9.383312734353716" width="10" height="101" rx="5" fill="#F5583E"/><rect x="256" y="14.364746566776404" width="10" height="91" rx="5" fill="#F5583E"/><rect x="272" y="34.46901354660577" width="10" height="51" rx="5" fill="#F5583E"/><rect x="288" y="41.803415557283174" width="10" height="36" rx="5" fill="#F5583E"/><rect x="304" y="27.89878206631799" width="10" height="64" rx="5" fill="#F5583E"/><rect x="320" y="13.687374988119139" width="10" height="93" rx="5" fill="#F5583E"/><rect x="336" y="23.846959290249643" width="10" height="72" rx="5" fill="#F5583E"/><rect x="352" y="27.95964231046915" width="10" height="64" rx="5" fill="#F5583E"/><rect x="368" y="2.2473255733471404" width="10" height="116" rx="5" fill="#F5583E"/><rect x="384" y="5.880449276635119" width="10" height="108" rx="5" fill="#F5583E"/><rect x="400" y="30.527761239949875" width="10" height="59" rx="5" fill="#F5583E"/><rect x="416" y="36.678492448242395" width="10" height="47" rx="5" fill="#F5583E"/><rect x="432" y="40.95084339345455" width="10" height="38" rx="5" fill="#F5583E"/><rect x="448" y="26.86770577591816" width="10" height="66" rx="5" fill="#F5583E"/><rect x="464" y="31.430805553723197" width="10" height="57" rx="5" fill="#F5583E"/><rect x="480" y="25.208318659949327" width="10" height="70" rx="5" fill="#F5583E"/><rect x="496" y="-0.08190447085618047" width="10" height="120" rx="5" fill="#F5583E"/><rect x="512" y="2.660273472751591" width="10" height="115" rx="5" fill="#F5583E"/><rect x="528" y="30.564425764406458" width="10" height="59" rx="5" fill="#F5583E"/><rect x="544" y="28.750656172649453" width="10" height="62" rx="5" fill="#F5583E"/><rect x="560" y="28.523160769716327" width="10" height="63" rx="5" fill="#F5583E"/><rect x="576" y="40.69123819458591" width="10" height="39" rx="5" fill="#F5583E"/><rect x="592" y="37.91250047092467" width="10" height="44" rx="5" fill="#F5583E"/><rect x="608" y="26.126196025602937" width="10" height="68" rx="5" fill="#F5583E"/><rect x="624" y="3.1585884413940235" width="10" height="114" rx="5" fill="#F5583E"/><rect x="640" y="4.812549125539078" width="10" height="110" rx="5" fill="#F5583E"/><rect x="656" y="33.83470385117482" width="10" height="52" rx="5" fill="#F5583E"/><rect x="672" y="20.095350310428607" width="10" height="80" rx="5" fill="#F5583E"/><rect x="688" y="14.822888481790955" width="10" height="90" rx="5" fill="#F5583E"/><rect x="704" y="31.079394517746657" width="10" height="58" rx="5" fill="#F5583E"/><rect x="720" y="41.75800839473523" width="10" height="36" rx="5" fill="#F5583E"/><rect x="736" y="31.30056953390988" width="10" height="57" rx="5" fill="#F5583E"/><rect x="752" y="11.738665851260663" width="10" height="97" rx="5" fill="#F5583E"/>
  </g>
  <g transform="translate(-380, 440)">
    <rect x="0" y="0" width="110" height="50" rx="25" fill="#F5583E"/>
    <path d="M 42 15 L 64 25 L 42 35 Z" fill="#FFF"/>
    <text x="140" y="34" fill="#1A1A1A" font-family="'AppleSDGothicNeoB00','Apple SD Gothic Neo','Malgun Gothic','Noto Sans CJK KR',sans-serif" font-size="26" font-weight="700">식탁 위의 온기 · 3:24</text>
  </g>
</g>

<!-- Bottom explanation -->
<g transform="translate(540, 2150)">
  <text x="0" y="0" text-anchor="middle" fill="#2C2C2C" font-family="'AppleSDGothicNeoB00','Apple SD Gothic Neo','Malgun Gothic','Noto Sans CJK KR',sans-serif" font-size="40" font-weight="600">AI가 가족 목소리의 특징을 학습하고</text>
  <text x="0" y="60" text-anchor="middle" fill="#2C2C2C" font-family="'AppleSDGothicNeoB00','Apple SD Gothic Neo','Malgun Gothic','Noto Sans CJK KR',sans-serif" font-size="40" font-weight="600">사연 속 감정을 가사로 바꿉니다</text>
</g>

<g transform="translate(200,2450)">
  <rect x="0" y="0" width="680" height="120" rx="60" fill="#1A1A1A"/>
  <text x="340" y="74" text-anchor="middle" fill="#FFF" font-family="'AppleSDGothicNeoB00','Apple SD Gothic Neo','Malgun Gothic','Noto Sans CJK KR',sans-serif" font-size="42" font-weight="800">🎧 샘플 전체 듣기</text>
</g>

</svg>