<svg xmlns="http://www.w3.org/2000/svg" viewBox="0 0 1240 1722" width="1240" height="1722">
<defs><linearGradient id="bg_1" x1="0" y1="0" x2="0" y2="1"><stop offset="0%" stop-color="#FFFFFF"/><stop offset="100%" stop-color="#FFF1ED"/></linearGradient></defs>
<rect width="1240" height="1722" fill="url(#bg_1)"/>

<circle cx="1000" cy="900" r="400" fill="#F5583E" fill-opacity="0.08"/>
<circle cx="200" cy="1500" r="160" fill="#FDBDB5" opacity="0.25"/>

<g transform="translate(620, 120)" text-anchor="middle">
  <g fill="#F5583E" transform="translate(-80, -15)">
    <rect x="0" y="6" width="4" height="10" rx="2"/>
    <rect x="7" y="-4" width="5" height="30" rx="2.5"/>
    <rect x="16" y="-4" width="5" height="30" rx="2.5"/>
    <path d="M 32 -4 Q 34 10 40 12 Q 34 14 32 28 Q 30 14 24 12 Q 30 10 32 -4 Z"/>
    <rect x="44" y="-4" width="5" height="30" rx="2.5"/>
    <rect x="53" y="-4" width="5" height="30" rx="2.5"/>
    <rect x="62" y="6" width="4" height="10" rx="2"/>
  </g>
  <text x="35" y="8" fill="#2C2C2C" font-family="'Pretendard','A2G',sans-serif" font-size="30" font-weight="900">하이싱</text>
</g>

<g transform="translate(620, 240)" text-anchor="middle">
  <rect x="-180" y="-32" width="360" height="64" rx="32" fill="#F5583E"/>
  <circle cx="-140" cy="0" r="7" fill="#FFF"/>
  <circle cx="-140" cy="0" r="3.5" fill="#F5583E"/>
  <text x="10" y="10" text-anchor="middle" fill="#FFF" font-family="'Pretendard','A2G',sans-serif" font-size="22" font-weight="800">5월 8일 어버이날 특가</text>
</g>

<text x="620" y="360" text-anchor="middle" fill="#6B7280" font-family="'Pretendard','A2G',sans-serif" font-size="28" font-weight="500">말로 다 못한 마음을, 이제 노래로</text>

<text x="620" y="500" text-anchor="middle" fill="#2C2C2C" font-family="'Pretendard','A2G',sans-serif" font-size="92" font-weight="900" letter-spacing="-3">올해만큼은</text>
<text x="620" y="600" text-anchor="middle" fill="#2C2C2C" font-family="'Pretendard','A2G',sans-serif" font-size="92" font-weight="900" letter-spacing="-3"><tspan fill="#F5583E">건강하세요</tspan> 대신</text>
<text x="620" y="700" text-anchor="middle" fill="#2C2C2C" font-family="'Pretendard','A2G',sans-serif" font-size="92" font-weight="900" letter-spacing="-3">노래 한 곡</text>

<g transform="translate(620, 1000)">
  <circle cx="0" cy="0" r="280" stroke="#F5583E" stroke-width="2" stroke-opacity="0.15" stroke-dasharray="3 10"/>
  <circle cx="0" cy="0" r="220" stroke="#F5583E" stroke-width="2" stroke-opacity="0.25" stroke-dasharray="3 10"/>
  <g fill="#F5583E">
<g transform="rotate(0)"><rect x="-4" y="110" width="8" height="20" rx="4"/></g><g transform="rotate(20)"><rect x="-4" y="110" width="8" height="27" rx="4"/></g><g transform="rotate(40)"><rect x="-4" y="110" width="8" height="34" rx="4"/></g><g transform="rotate(60)"><rect x="-4" y="110" width="8" height="41" rx="4"/></g><g transform="rotate(80)"><rect x="-4" y="110" width="8" height="48" rx="4"/></g><g transform="rotate(100)"><rect x="-4" y="110" width="8" height="21" rx="4"/></g><g transform="rotate(120)"><rect x="-4" y="110" width="8" height="28" rx="4"/></g><g transform="rotate(140)"><rect x="-4" y="110" width="8" height="35" rx="4"/></g><g transform="rotate(160)"><rect x="-4" y="110" width="8" height="42" rx="4"/></g><g transform="rotate(180)"><rect x="-4" y="110" width="8" height="49" rx="4"/></g><g transform="rotate(200)"><rect x="-4" y="110" width="8" height="22" rx="4"/></g><g transform="rotate(220)"><rect x="-4" y="110" width="8" height="29" rx="4"/></g><g transform="rotate(240)"><rect x="-4" y="110" width="8" height="36" rx="4"/></g><g transform="rotate(260)"><rect x="-4" y="110" width="8" height="43" rx="4"/></g><g transform="rotate(280)"><rect x="-4" y="110" width="8" height="50" rx="4"/></g><g transform="rotate(300)"><rect x="-4" y="110" width="8" height="23" rx="4"/></g><g transform="rotate(320)"><rect x="-4" y="110" width="8" height="30" rx="4"/></g><g transform="rotate(340)"><rect x="-4" y="110" width="8" height="37" rx="4"/></g></g><g transform="translate(0,0) scale(1.7)">
  <path d="M 0 40 Q -3 80 2 140" stroke="#2D7A3E" stroke-width="5" stroke-linecap="round" fill="none"/>
  <path d="M 2 90 Q -30 80 -46 100 Q -32 110 -2 100 Z" fill="#3AA556"/>
  <circle cx="0" cy="0" r="56" fill="#FDBDB5"/>
  <g fill="#F5583E">
    <circle cx="-42" cy="-32" r="18"/><circle cx="42" cy="-32" r="18"/>
    <circle cx="-52" cy="0" r="18"/><circle cx="52" cy="0" r="18"/>
    <circle cx="-42" cy="32" r="18"/><circle cx="42" cy="32" r="18"/>
    <circle cx="0" cy="-44" r="18"/><circle cx="0" cy="44" r="18"/>
  </g>
  <circle cx="0" cy="0" r="40" fill="#F5583E"/>
  <circle cx="0" cy="0" r="20" fill="#C9371E"/>
  <g fill="#FFF" transform="translate(-7, -10)">
    <circle cx="2" cy="16" r="5"/><rect x="5.5" y="-2" width="2" height="18" rx="1"/>
    <path d="M 5.5 -2 Q 15 0 15 8 Q 10 3 5.5 6 Z"/>
  </g>
</g></g>
<g transform="translate(620, 1380)" text-anchor="middle">
  <text x="-80" y="0" fill="#AAAAAA" font-family="'Pretendard','A2G',sans-serif" font-size="30" text-decoration="line-through">29,000원</text>
  <g transform="translate(80, -12)">
    <rect x="-50" y="-18" width="100" height="36" rx="18" fill="#F5583E"/>
    <text x="0" y="6" text-anchor="middle" fill="#FFF" font-family="'Pretendard','A2G',sans-serif" font-size="18" font-weight="800">31% ↓</text>
  </g>
  <text x="0" y="88" text-anchor="middle" fill="#F5583E" font-family="'Pretendard','A2G',sans-serif" font-size="88" font-weight="900" letter-spacing="-2">19,900원</text>
</g>
<g transform="translate(620, 1580)">
  <rect x="-220" y="0" width="440" height="92" rx="46" fill="#F5583E"/>
  <text x="0" y="60" text-anchor="middle" fill="#FFF" font-family="'Pretendard','A2G',sans-serif" font-size="28" font-weight="800">지금 노래 선물하기 →</text>
</g>

</svg>