<svg xmlns="http://www.w3.org/2000/svg" viewBox="0 0 1810 1249" fill="#F5583E">
<g transform="translate(-10.730188,1258.686090) scale(0.100000,-0.100000)">
<path d="M8900 12581 c-53 -11 -96 -40 -118 -80 -20 -36 -21 -54 -25 -921 -5
-1144 -23 -1565 -78 -1855 -5 -27 -16 -99 -25 -158 -17 -123 -63 -340 -98
-467 -66 -238 -104 -358 -125 -396 -11 -21 -59 -138 -68 -168 -4 -11 -37 -76
-75 -145 -37 -69 -68 -127 -68 -130 0 -3 -35 -63 -77 -134 -142 -235 -397
-536 -588 -692 -38 -32 -74 -63 -80 -69 -28 -33 -286 -216 -304 -216 -5 0 -14
-7 -21 -15 -7 -8 -24 -21 -39 -28 -49 -26 -146 -78 -161 -87 -8 -5 -51 -26
-95 -46 -44 -21 -87 -43 -95 -50 -8 -6 -78 -37 -155 -69 -112 -47 -150 -58
-192 -57 -72 1 -91 8 -110 45 -16 30 -17 153 -18 1662 -1 1257 -4 1640 -13
1672 -7 23 -25 56 -39 74 -47 55 -77 62 -298 67 -221 5 -300 -5 -345 -40 -55
-43 -54 -38 -55 -758 0 -505 -3 -673 -13 -700 -6 -19 -16 -69 -21 -110 -13
-97 -67 -297 -141 -520 -78 -232 -177 -437 -303 -624 -82 -123 -115 -166 -241
-310 -92 -107 -327 -292 -526 -414 -113 -70 -296 -146 -480 -201 -172 -50
-217 -60 -383 -82 -188 -25 -229 -21 -283 25 l-39 34 -2 1107 c-2 870 -5 1112
-15 1132 -7 15 -30 40 -51 57 l-39 31 -236 3 c-286 4 -309 1 -352 -41 -65 -63
-60 142 -61 -2619 0 -1734 3 -2531 10 -2548 14 -33 39 -62 76 -86 27 -18 47
-19 268 -17 132 2 257 8 278 13 62 17 107 63 115 117 4 26 7 551 8 1168 1
1050 2 1123 18 1148 10 14 28 32 40 39 32 18 275 14 348 -7 30 -8 87 -22 125
-29 39 -8 84 -20 100 -26 15 -6 58 -19 94 -29 151 -43 365 -136 475 -206 30
-19 58 -35 62 -35 6 0 165 -108 174 -119 3 -3 37 -32 75 -63 80 -64 261 -248
290 -293 11 -16 47 -64 80 -105 134 -165 234 -349 328 -605 15 -38 38 -100 52
-136 14 -36 25 -72 25 -80 1 -8 8 -32 16 -54 29 -75 74 -260 89 -361 8 -56 20
-114 27 -130 10 -23 13 -192 14 -774 0 -843 -5 -786 82 -837 l47 -28 235 0
c232 0 236 0 285 26 37 19 55 36 72 70 l23 44 3 1775 2 1775 23 32 c18 25 34
34 76 43 49 10 58 9 132 -20 43 -17 86 -35 95 -40 9 -5 36 -14 59 -20 60 -16
419 -193 488 -241 31 -21 82 -56 112 -76 203 -137 407 -321 608 -548 51 -57
195 -257 237 -329 94 -160 219 -414 265 -536 17 -47 38 -103 47 -125 51 -132
117 -352 133 -444 4 -25 26 -136 48 -246 22 -110 45 -252 51 -315 6 -63 16
-133 21 -155 17 -69 40 -303 51 -515 6 -113 13 -637 15 -1165 2 -528 8 -973
12 -989 10 -38 68 -85 118 -97 22 -4 149 -9 284 -9 276 0 285 2 331 76 l23 39
-2 880 c-3 845 4 1175 28 1350 6 39 17 149 26 245 8 96 19 194 24 217 6 23 15
86 20 140 6 54 16 116 21 137 6 21 19 91 30 155 11 64 28 145 38 181 10 36 29
103 41 150 33 126 92 310 102 316 4 3 8 12 8 19 0 8 13 43 29 77 15 35 31 74
35 88 10 34 16 48 76 175 29 61 59 124 67 140 7 17 25 48 38 70 14 22 37 63
51 90 15 28 55 91 90 141 35 51 64 95 64 98 0 3 15 26 33 49 17 24 59 79 91
122 78 104 330 355 431 430 163 122 404 263 550 322 17 7 64 26 105 43 119 49
196 63 330 59 101 -3 123 -7 147 -25 44 -33 57 -70 57 -159 1 -44 -1 -818 -2
-1720 -1 -946 1 -1653 7 -1671 15 -52 34 -75 86 -102 49 -26 55 -26 283 -30
l233 -4 55 28 c48 24 59 36 79 79 l22 51 1 710 c0 612 2 719 16 779 9 39 25
120 36 180 37 205 131 528 195 670 59 132 109 230 155 305 27 45 50 84 50 86
0 14 160 226 240 318 34 39 151 152 225 216 53 46 229 170 242 170 2 0 38 20
79 45 40 25 76 45 79 45 3 0 47 20 98 44 50 23 110 49 132 55 22 7 63 21 90
31 68 26 229 68 290 76 28 4 68 13 90 21 43 16 266 30 309 19 14 -3 34 -18 43
-33 17 -25 18 -101 23 -1199 4 -954 7 -1174 18 -1187 8 -9 32 -25 55 -36 36
-18 71 -21 262 -27 121 -4 242 -4 269 0 59 9 118 58 134 114 9 29 9 179 2 598
-5 307 -10 1437 -10 2510 0 1275 -3 1961 -10 1978 -17 47 -53 85 -88 97 -40
13 -432 18 -504 6 -53 -9 -104 -46 -120 -86 -7 -17 -10 -387 -8 -1113 1 -1064
1 -1088 -18 -1132 -24 -52 -68 -80 -124 -77 -72 4 -294 42 -383 65 -174 46
-373 110 -389 127 -6 5 -16 9 -24 9 -22 0 -169 72 -257 127 -191 117 -398 291
-536 448 -71 81 -160 200 -191 254 -18 31 -43 72 -56 91 -26 39 -155 301 -167
340 -4 14 -11 30 -15 35 -4 6 -15 34 -24 64 -9 29 -20 59 -24 65 -5 6 -15 34
-21 61 -7 28 -21 77 -31 110 -29 93 -50 182 -67 280 -8 50 -24 131 -35 180
-17 76 -22 145 -29 440 -4 193 -8 483 -8 645 -1 410 -3 415 -197 441 -97 13
-343 6 -429 -11 -62 -13 -108 -56 -126 -117 -10 -36 -11 -375 -6 -1670 4
-1091 3 -1633 -4 -1651 -30 -79 -112 -109 -211 -77 -97 31 -232 86 -357 146
-68 32 -125 59 -127 59 -9 0 -214 118 -274 157 -198 129 -282 196 -419 333
-151 150 -270 285 -335 380 -21 30 -41 57 -44 60 -9 6 -108 158 -148 225 -33
55 -171 330 -193 385 -8 19 -27 62 -42 95 -15 33 -34 78 -42 100 -8 22 -26 72
-40 110 -14 39 -36 104 -47 145 -12 41 -33 113 -47 160 -27 94 -66 269 -88
400 -40 225 -48 286 -78 570 l-31 305 -2 1033 c-1 1015 -2 1034 -21 1060 -11
15 -35 36 -54 47 -31 18 -54 20 -269 22 -129 1 -251 -2 -270 -6z"/>
<path d="M237 7631 c-50 -10 -86 -38 -111 -86 -20 -39 -20 -50 -17 -1224 3
-1148 3 -1186 22 -1223 12 -24 35 -46 62 -60 39 -22 56 -23 262 -26 265 -4
315 1 355 35 70 58 65 -41 62 1268 l-3 1180 -24 52 c-36 80 -35 80 -320 86
-137 3 -267 2 -288 -2z"/>
<path d="M17532 7630 c-13 -6 -33 -20 -43 -33 -51 -58 -49 -1 -49 -1272 0
-1298 -4 -1209 60 -1270 l31 -30 282 -3 c269 -2 283 -1 315 18 20 12 42 39 55
68 l22 47 3 1108 c1 609 -1 1148 -6 1196 -8 73 -14 95 -36 124 -15 19 -35 39
-44 43 -26 12 -563 15 -590 4z"/>
</g>
</svg>