<svg xmlns="http://www.w3.org/2000/svg" viewBox="0 0 1200 7330" fill="none">
<g transform="translate(0,0)"><rect width="1200" height="760" fill="#FFFFFF"/>
<circle cx="900" cy="440" r="300" fill="#F5583E" fill-opacity="0.12"/>
<circle cx="150" cy="700" r="100" fill="#FDBDB5" opacity="0.25"/>
<g transform="translate(1050, 60)">
  <g fill="#F5583E">
    <rect x="0" y="2" width="2.5" height="6" rx="1.25"/>
    <rect x="4" y="-4" width="3" height="18" rx="1.5"/>
    <rect x="9.5" y="-4" width="3" height="18" rx="1.5"/>
    <path d="M 20 -4 Q 21 4 25 5 Q 21 6 20 14 Q 19 6 15 5 Q 19 4 20 -4 Z"/>
    <rect x="28" y="-4" width="3" height="18" rx="1.5"/>
    <rect x="33.5" y="-4" width="3" height="18" rx="1.5"/>
    <rect x="38" y="2" width="2.5" height="6" rx="1.25"/>
  </g>
  <text x="50" y="10" fill="#2C2C2C" font-family="'Pretendard','A2G',sans-serif" font-size="18" font-weight="800">하이싱</text>
</g>
<g transform="translate(80, 110)">
  <rect x="0" y="0" width="210" height="48" rx="24" fill="#F5583E"/>
  <circle cx="22" cy="24" r="5" fill="#FFF"/>
  <circle cx="22" cy="24" r="2.5" fill="#F5583E"/>
  <text x="40" y="31" fill="#FFF" font-family="'Pretendard','A2G',sans-serif" font-size="15" font-weight="800">5월 8일 어버이날 특가</text>
  <text x="0" y="98" fill="#6B7280" font-family="'Pretendard','A2G',sans-serif" font-size="18" font-weight="500">말로 다 못한 마음을, 이제 노래로</text>
  <text x="0" y="168" fill="#2C2C2C" font-family="'Pretendard','A2G',sans-serif" font-size="62" font-weight="900" letter-spacing="-2">올해만큼은</text>
  <text x="0" y="240" fill="#2C2C2C" font-family="'Pretendard','A2G',sans-serif" font-size="62" font-weight="900" letter-spacing="-2"><tspan fill="#F5583E">건강하세요</tspan> 대신</text>
  <text x="0" y="312" fill="#2C2C2C" font-family="'Pretendard','A2G',sans-serif" font-size="62" font-weight="900" letter-spacing="-2">노래 한 곡</text>
  <text x="0" y="368" fill="#444444" font-family="'Pretendard','A2G',sans-serif" font-size="17">부모님의 목소리로 만드는, 세상에 단 하나뿐인 노래.</text>
  <g transform="translate(0, 420)">
    <text x="0" y="20" fill="#AAAAAA" font-family="'Pretendard','A2G',sans-serif" font-size="18" text-decoration="line-through">29,000원</text>
    <g transform="translate(110, 0)"><rect x="0" y="4" width="70" height="24" rx="12" fill="#F5583E"/><text x="35" y="21" text-anchor="middle" fill="#FFF" font-family="'Pretendard','A2G',sans-serif" font-size="13" font-weight="800">31% ↓</text></g>
    <text x="0" y="78" fill="#F5583E" font-family="'Pretendard','A2G',sans-serif" font-size="52" font-weight="900">19,900원</text>
    <text x="210" y="78" fill="#AAAAAA" font-family="'Pretendard','A2G',sans-serif" font-size="16">얼리버드 특가</text>
  </g>
  <g transform="translate(0, 540)">
    <rect x="0" y="0" width="260" height="64" rx="32" fill="#F5583E"/>
    <text x="110" y="40" text-anchor="middle" fill="#FFF" font-family="'Pretendard','A2G',sans-serif" font-size="18" font-weight="800">지금 노래 선물하기</text>
    <path d="M 218 32 L 228 32 M 223 27 L 228 32 L 223 37" stroke="#FFF" stroke-width="2.2" stroke-linecap="round" fill="none"/>
  </g>
</g>
<g transform="translate(720, 180)">
  <circle cx="220" cy="220" r="260" stroke="#F5583E" stroke-width="1.5" stroke-opacity="0.15" stroke-dasharray="2 8"/>
  <circle cx="220" cy="220" r="210" stroke="#F5583E" stroke-width="1.5" stroke-opacity="0.25" stroke-dasharray="2 8"/>
  <circle cx="220" cy="220" r="160" stroke="#F5583E" stroke-width="1.5" stroke-opacity="0.35" stroke-dasharray="2 8"/>
  <g transform="translate(220,220)" fill="#F5583E">
<g transform="rotate(0)"><rect x="-3" y="95" width="6" height="14" rx="3"/></g><g transform="rotate(20)"><rect x="-3" y="95" width="6" height="21" rx="3"/></g><g transform="rotate(40)"><rect x="-3" y="95" width="6" height="28" rx="3"/></g><g transform="rotate(60)"><rect x="-3" y="95" width="6" height="35" rx="3"/></g><g transform="rotate(80)"><rect x="-3" y="95" width="6" height="16" rx="3"/></g><g transform="rotate(100)"><rect x="-3" y="95" width="6" height="23" rx="3"/></g><g transform="rotate(120)"><rect x="-3" y="95" width="6" height="30" rx="3"/></g><g transform="rotate(140)"><rect x="-3" y="95" width="6" height="37" rx="3"/></g><g transform="rotate(160)"><rect x="-3" y="95" width="6" height="18" rx="3"/></g><g transform="rotate(180)"><rect x="-3" y="95" width="6" height="25" rx="3"/></g><g transform="rotate(200)"><rect x="-3" y="95" width="6" height="32" rx="3"/></g><g transform="rotate(220)"><rect x="-3" y="95" width="6" height="39" rx="3"/></g><g transform="rotate(240)"><rect x="-3" y="95" width="6" height="20" rx="3"/></g><g transform="rotate(260)"><rect x="-3" y="95" width="6" height="27" rx="3"/></g><g transform="rotate(280)"><rect x="-3" y="95" width="6" height="34" rx="3"/></g><g transform="rotate(300)"><rect x="-3" y="95" width="6" height="15" rx="3"/></g><g transform="rotate(320)"><rect x="-3" y="95" width="6" height="22" rx="3"/></g><g transform="rotate(340)"><rect x="-3" y="95" width="6" height="29" rx="3"/></g></g><g transform="translate(220,220) scale(1)">
  <path d="M 0 40 Q -3 80 2 140" stroke="#2D7A3E" stroke-width="5" stroke-linecap="round" fill="none"/>
  <path d="M 2 90 Q -30 80 -46 100 Q -32 110 -2 100 Z" fill="#3AA556"/>
  <circle cx="0" cy="0" r="56" fill="#FDBDB5"/>
  <g fill="#F5583E">
    <circle cx="-42" cy="-32" r="18"/><circle cx="42" cy="-32" r="18"/>
    <circle cx="-52" cy="0" r="18"/><circle cx="52" cy="0" r="18"/>
    <circle cx="-42" cy="32" r="18"/><circle cx="42" cy="32" r="18"/>
    <circle cx="0" cy="-44" r="18"/><circle cx="0" cy="44" r="18"/>
  </g>
  <circle cx="0" cy="0" r="40" fill="#F5583E"/>
  <circle cx="0" cy="0" r="20" fill="#C9371E"/>
  <g fill="#FFF" transform="translate(-7, -10)">
    <circle cx="2" cy="16" r="5"/><rect x="5.5" y="-2" width="2" height="18" rx="1"/>
    <path d="M 5.5 -2 Q 15 0 15 8 Q 10 3 5.5 6 Z"/>
  </g>
</g></g></g>
<g transform="translate(0,760)"><rect width="1200" height="700" fill="#F8F8F8"/>
<text x="600" y="80" fill="#F5583E" font-family="'Pretendard','A2G',sans-serif" font-size="13" font-weight="800" letter-spacing="4" text-anchor="middle">FROM PROBLEM TO GIFT</text>
<text x="600" y="130" fill="#2C2C2C" font-family="'Pretendard','A2G',sans-serif" font-size="34" font-weight="900" letter-spacing="-1.5" text-anchor="middle">이 고민, 올해도 하고 계신가요?</text>
<g transform="translate(100, 210)">
  <g>
    <rect x="0" y="0" width="300" height="180" rx="16" fill="#FFF" stroke="#EEE" stroke-width="1.5"/>
    <text x="30" y="60" font-size="32">😕</text>
    <text x="80" y="55" fill="#2C2C2C" font-family="'Pretendard','A2G',sans-serif" font-size="16" font-weight="800">작년이랑 똑같네</text>
    <text x="30" y="100" fill="#6B7280" font-family="'Pretendard','A2G',sans-serif" font-size="13">홍삼·용돈·건강식품,</text>
    <text x="30" y="120" fill="#6B7280" font-family="'Pretendard','A2G',sans-serif" font-size="13">매년 돌려쓰는 그 선물</text>
  </g>
  <g transform="translate(350, 0)">
    <rect x="0" y="0" width="300" height="180" rx="16" fill="#FFF" stroke="#EEE" stroke-width="1.5"/>
    <text x="30" y="60" font-size="32">😔</text>
    <text x="80" y="55" fill="#2C2C2C" font-family="'Pretendard','A2G',sans-serif" font-size="16" font-weight="800">말로는 쑥스러워</text>
    <text x="30" y="100" fill="#6B7280" font-family="'Pretendard','A2G',sans-serif" font-size="13">“사랑합니다” 한마디가</text>
    <text x="30" y="120" fill="#6B7280" font-family="'Pretendard','A2G',sans-serif" font-size="13">왜 그리 어려울까</text>
  </g>
  <g transform="translate(700, 0)">
    <rect x="0" y="0" width="300" height="180" rx="16" fill="#FFF" stroke="#EEE" stroke-width="1.5"/>
    <text x="30" y="60" font-size="32">⏳</text>
    <text x="80" y="55" fill="#2C2C2C" font-family="'Pretendard','A2G',sans-serif" font-size="16" font-weight="800">올해는 꼭 다르게</text>
    <text x="30" y="100" fill="#6B7280" font-family="'Pretendard','A2G',sans-serif" font-size="13">내년에 똑같은 고민을</text>
    <text x="30" y="120" fill="#6B7280" font-family="'Pretendard','A2G',sans-serif" font-size="13">반복하고 싶지 않다면</text>
  </g>
</g>
<g transform="translate(600, 500)" text-anchor="middle">
  <circle cx="0" cy="0" r="70" fill="#F5583E"/>
  <g fill="#FFF" transform="translate(-10, -16)">
    <circle cx="4" cy="26" r="7"/><rect x="8.5" y="-2" width="3" height="28" rx="1.5"/>
    <path d="M 8.5 -2 Q 22 0 22 10 Q 14 4 8.5 8 Z"/>
  </g>
  <text x="0" y="120" fill="#2C2C2C" font-family="'Pretendard','A2G',sans-serif" font-size="26" font-weight="900">하이싱이 노래로 만들어드립니다</text>
  <text x="0" y="152" fill="#6B7280" font-family="'Pretendard','A2G',sans-serif" font-size="15">가족 목소리 30초 + 짧은 사연 한 편</text>
</g>
</g>
<g transform="translate(0,1460)"><rect width="1200" height="580" fill="#FFFFFF"/>
<text x="600" y="80" fill="#F5583E" font-family="'Pretendard','A2G',sans-serif" font-size="13" font-weight="800" letter-spacing="4" text-anchor="middle">WHY HI-SING</text>
<text x="600" y="130" fill="#2C2C2C" font-family="'Pretendard','A2G',sans-serif" font-size="36" font-weight="900" letter-spacing="-1.5" text-anchor="middle">왜 하이싱일까요?</text>
<g transform="translate(120, 210)">
  <g>
    <rect x="0" y="0" width="290" height="300" rx="20" fill="#FFF1ED"/>
    <g transform="translate(145, 70)"><circle cx="0" cy="0" r="36" fill="#F5583E"/><text x="0" y="8" text-anchor="middle" font-family="'Pretendard','A2G',sans-serif" font-size="22" fill="#FFF" font-weight="800">1</text></g>
    <text x="145" y="160" text-anchor="middle" fill="#2C2C2C" font-family="'Pretendard','A2G',sans-serif" font-size="19" font-weight="800">세상에 단 하나뿐인</text>
    <text x="145" y="200" text-anchor="middle" fill="#6B7280" font-family="'Pretendard','A2G',sans-serif" font-size="13">가족 목소리를 AI가 분석해서</text>
    <text x="145" y="220" text-anchor="middle" fill="#6B7280" font-family="'Pretendard','A2G',sans-serif" font-size="13">오직 당신 가족만을 위한</text>
    <text x="145" y="240" text-anchor="middle" fill="#6B7280" font-family="'Pretendard','A2G',sans-serif" font-size="13">노래로 완성됩니다</text>
  </g>
  <g transform="translate(330, 0)">
    <rect x="0" y="0" width="290" height="300" rx="20" fill="#FFF" stroke="#F5583E" stroke-width="2"/>
    <g transform="translate(145, 70)"><circle cx="0" cy="0" r="36" fill="#F5583E"/><text x="0" y="8" text-anchor="middle" font-family="'Pretendard','A2G',sans-serif" font-size="22" fill="#FFF" font-weight="800">2</text></g>
    <text x="145" y="160" text-anchor="middle" fill="#2C2C2C" font-family="'Pretendard','A2G',sans-serif" font-size="19" font-weight="800">감동이 스며드는</text>
    <text x="145" y="200" text-anchor="middle" fill="#6B7280" font-family="'Pretendard','A2G',sans-serif" font-size="13">후렴 한 마디에 울컥하고</text>
    <text x="145" y="220" text-anchor="middle" fill="#6B7280" font-family="'Pretendard','A2G',sans-serif" font-size="13">가사 한 줄에 멈춥니다</text>
    <text x="145" y="240" text-anchor="middle" fill="#F5583E" font-family="'Pretendard','A2G',sans-serif" font-size="13" font-weight="800">수령자 94%가 눈물</text>
  </g>
  <g transform="translate(660, 0)">
    <rect x="0" y="0" width="290" height="300" rx="20" fill="#FFF1ED"/>
    <g transform="translate(145, 70)"><circle cx="0" cy="0" r="36" fill="#F5583E"/><text x="0" y="8" text-anchor="middle" font-family="'Pretendard','A2G',sans-serif" font-size="22" fill="#FFF" font-weight="800">3</text></g>
    <text x="145" y="160" text-anchor="middle" fill="#2C2C2C" font-family="'Pretendard','A2G',sans-serif" font-size="19" font-weight="800">평생 남는 선물</text>
    <text x="145" y="200" text-anchor="middle" fill="#6B7280" font-family="'Pretendard','A2G',sans-serif" font-size="13">MP3 + 가사 + 앨범 커버</text>
    <text x="145" y="220" text-anchor="middle" fill="#6B7280" font-family="'Pretendard','A2G',sans-serif" font-size="13">부모님 휴대폰에 평생 저장되는</text>
    <text x="145" y="240" text-anchor="middle" fill="#6B7280" font-family="'Pretendard','A2G',sans-serif" font-size="13">가장 가까운 음악</text>
  </g>
</g>
</g>
<g transform="translate(0,2040)"><rect width="1200" height="530" fill="#F8F8F8"/>
<text x="600" y="80" fill="#F5583E" font-family="'Pretendard','A2G',sans-serif" font-size="13" font-weight="800" letter-spacing="4" text-anchor="middle">LISTEN &amp; COMPARE</text>
<text x="600" y="130" fill="#2C2C2C" font-family="'Pretendard','A2G',sans-serif" font-size="34" font-weight="900" letter-spacing="-1.5" text-anchor="middle">목소리가 노래로 바뀌는 순간</text>
<g transform="translate(140, 210)">
  <rect x="0" y="0" width="450" height="260" rx="20" fill="#FFF" stroke="#EEE" stroke-width="1.5"/>
  <text x="30" y="50" fill="#6B7280" font-family="'Pretendard','A2G',sans-serif" font-size="12" font-weight="800" letter-spacing="2">BEFORE</text>
  <text x="30" y="80" fill="#2C2C2C" font-family="'Pretendard','A2G',sans-serif" font-size="20" font-weight="800">가족 목소리 (30초)</text>
  <g transform="translate(30, 110)">
<rect x="0" y="23.0" width="5" height="18.0" rx="2.5" fill="#BDBDBD"/><rect x="11" y="13.890914766520144" width="5" height="36.2" rx="2.5" fill="#BDBDBD"/><rect x="22" y="7.012051288649964" width="5" height="50.0" rx="2.5" fill="#BDBDBD"/><rect x="33" y="4.047595254522964" width="5" height="55.9" rx="2.5" fill="#BDBDBD"/><rect x="44" y="5.723348890312046" width="5" height="52.6" rx="2.5" fill="#BDBDBD"/><rect x="55" y="11.62902926202483" width="5" height="40.7" rx="2.5" fill="#BDBDBD"/><rect x="66" y="20.31871984686252" width="5" height="23.4" rx="2.5" fill="#BDBDBD"/><rect x="77" y="16.335118673897224" width="5" height="31.3" rx="2.5" fill="#BDBDBD"/><rect x="88" y="8.620752589149362" width="5" height="46.8" rx="2.5" fill="#BDBDBD"/><rect x="99" y="4.426927764363157" width="5" height="55.1" rx="2.5" fill="#BDBDBD"/><rect x="110" y="4.78043878140037" width="5" height="54.4" rx="2.5" fill="#BDBDBD"/><rect x="121" y="9.594733814162552" width="5" height="44.8" rx="2.5" fill="#BDBDBD"/><rect x="132" y="17.69110553422041" width="5" height="28.6" rx="2.5" fill="#BDBDBD"/><rect x="143" y="18.912720226331505" width="5" height="26.2" rx="2.5" fill="#BDBDBD"/><rect x="154" y="10.517254624343007" width="5" height="43.0" rx="2.5" fill="#BDBDBD"/><rect x="165" y="5.178000441279963" width="5" height="53.6" rx="2.5" fill="#BDBDBD"/><rect x="176" y="4.202193314155746" width="5" height="55.6" rx="2.5" fill="#BDBDBD"/><rect x="187" y="7.828744860153684" width="5" height="48.3" rx="2.5" fill="#BDBDBD"/><rect x="198" y="15.169748780406625" width="5" height="33.7" rx="2.5" fill="#BDBDBD"/><rect x="209" y="21.572128711225623" width="5" height="20.9" rx="2.5" fill="#BDBDBD"/><rect x="220" y="12.663598893101977" width="5" height="38.7" rx="2.5" fill="#BDBDBD"/><rect x="231" y="6.285780560538267" width="5" height="51.4" rx="2.5" fill="#BDBDBD"/><rect x="242" y="4.000186075536632" width="5" height="56.0" rx="2.5" fill="#BDBDBD"/><rect x="253" y="6.366408680919857" width="5" height="51.3" rx="2.5" fill="#BDBDBD"/><rect x="264" y="12.805114557991736" width="5" height="38.4" rx="2.5" fill="#BDBDBD"/><rect x="275" y="21.739883950327187" width="5" height="20.5" rx="2.5" fill="#BDBDBD"/><rect x="286" y="15.016826300293822" width="5" height="34.0" rx="2.5" fill="#BDBDBD"/><rect x="297" y="7.728095895519203" width="5" height="48.5" rx="2.5" fill="#BDBDBD"/><rect x="308" y="4.178460241797463" width="5" height="55.6" rx="2.5" fill="#BDBDBD"/><rect x="319" y="5.236993945031024" width="5" height="53.5" rx="2.5" fill="#BDBDBD"/><rect x="330" y="10.64453103701478" width="5" height="42.7" rx="2.5" fill="#BDBDBD"/><rect x="341" y="19.077117843181867" width="5" height="25.8" rx="2.5" fill="#BDBDBD"/>
  </g>
  <text x="30" y="200" fill="#6B7280" font-family="'Pretendard','A2G',sans-serif" font-size="12">전화 녹음·영상 속 목소리·일상 대화</text>
  <text x="30" y="220" fill="#6B7280" font-family="'Pretendard','A2G',sans-serif" font-size="12">스마트폰 녹음 OK</text>
</g>
<g transform="translate(600, 335)">
  <path d="M 0 0 L 40 20 L 0 40 Z" fill="#F5583E"/>
</g>
<g transform="translate(670, 210)">
  <rect x="0" y="0" width="450" height="260" rx="20" fill="#FFF1ED" stroke="#F5583E" stroke-width="2"/>
  <text x="30" y="50" fill="#F5583E" font-family="'Pretendard','A2G',sans-serif" font-size="12" font-weight="800" letter-spacing="2">AFTER</text>
  <text x="30" y="80" fill="#2C2C2C" font-family="'Pretendard','A2G',sans-serif" font-size="20" font-weight="800">완성된 맞춤 노래</text>
  <g transform="translate(30, 110)">
<rect x="0" y="20.0" width="5" height="24.0" rx="2.5" fill="#F5583E"/><rect x="11" y="13.071923110835282" width="5" height="37.9" rx="2.5" fill="#F5583E"/><rect x="22" y="19.45448538696393" width="5" height="25.1" rx="2.5" fill="#F5583E"/><rect x="33" y="1.450659377241216" width="5" height="61.1" rx="2.5" fill="#F5583E"/><rect x="44" y="-8.529310200419062" width="5" height="81.1" rx="2.5" fill="#F5583E"/><rect x="55" y="1.3478920213858956" width="5" height="61.3" rx="2.5" fill="#F5583E"/><rect x="66" y="17.809631679761615" width="5" height="28.4" rx="2.5" fill="#F5583E"/><rect x="77" y="5.655772296680539" width="5" height="52.7" rx="2.5" fill="#F5583E"/><rect x="88" y="10.351549817771055" width="5" height="43.3" rx="2.5" fill="#F5583E"/><rect x="99" y="19.85167776036532" width="5" height="24.3" rx="2.5" fill="#F5583E"/><rect x="110" y="18.519869826838306" width="5" height="27.0" rx="2.5" fill="#F5583E"/><rect x="121" y="4.6961924000525315" width="5" height="54.6" rx="2.5" fill="#F5583E"/><rect x="132" y="-4.8886722765013175" width="5" height="73.8" rx="2.5" fill="#F5583E"/><rect x="143" y="3.9454877943872795" width="5" height="56.1" rx="2.5" fill="#F5583E"/><rect x="154" y="14.216162893808782" width="5" height="35.6" rx="2.5" fill="#F5583E"/><rect x="165" y="-1.0196429045276005" width="5" height="66.0" rx="2.5" fill="#F5583E"/><rect x="176" y="2.190614454144793" width="5" height="59.6" rx="2.5" fill="#F5583E"/><rect x="187" y="15.14669761892372" width="5" height="33.7" rx="2.5" fill="#F5583E"/><rect x="198" y="19.873312248026934" width="5" height="24.3" rx="2.5" fill="#F5583E"/><rect x="209" y="10.912548442738263" width="5" height="42.2" rx="2.5" fill="#F5583E"/><rect x="220" y="1.7540861034545543" width="5" height="60.5" rx="2.5" fill="#F5583E"/><rect x="231" y="8.301373764827545" width="5" height="47.4" rx="2.5" fill="#F5583E"/><rect x="242" y="10.951769488969006" width="5" height="42.1" rx="2.5" fill="#F5583E"/><rect x="253" y="-5.618390186065177" width="5" height="75.2" rx="2.5" fill="#F5583E"/><rect x="264" y="-3.2770437995018113" width="5" height="70.6" rx="2.5" fill="#F5583E"/><rect x="275" y="12.606779465745475" width="5" height="38.8" rx="2.5" fill="#F5583E"/><rect x="286" y="16.570584022200656" width="5" height="30.9" rx="2.5" fill="#F5583E"/><rect x="297" y="19.3238768535596" width="5" height="25.4" rx="2.5" fill="#F5583E"/><rect x="308" y="10.2480770555917" width="5" height="43.5" rx="2.5" fill="#F5583E"/><rect x="319" y="13.188741356843838" width="5" height="37.6" rx="2.5" fill="#F5583E"/><rect x="330" y="9.178694247522902" width="5" height="45.6" rx="2.5" fill="#F5583E"/><rect x="341" y="-7.119449547885097" width="5" height="78.2" rx="2.5" fill="#F5583E"/>
  </g>
  <g transform="translate(30, 190)">
    <rect x="0" y="0" width="60" height="26" rx="13" fill="#F5583E"/>
    <path d="M 22 8 L 32 13 L 22 18 Z" fill="#FFF"/>
    <text x="70" y="18" fill="#2C2C2C" font-family="'Pretendard','A2G',sans-serif" font-size="13" font-weight="700">식탁 위의 온기 · 3:24</text>
  </g>
</g>
</g>
<g transform="translate(0,2570)"><rect width="1200" height="670" fill="#FFFFFF"/>
<text x="600" y="80" fill="#F5583E" font-family="'Pretendard','A2G',sans-serif" font-size="13" font-weight="800" letter-spacing="4" text-anchor="middle">REAL STORY</text>
<text x="600" y="130" fill="#2C2C2C" font-family="'Pretendard','A2G',sans-serif" font-size="36" font-weight="900" letter-spacing="-1.5" text-anchor="middle">어느 팔순 저녁의 이야기</text>
<g transform="translate(120, 200)">
  <rect x="0" y="0" width="960" height="400" rx="24" fill="#FFF" stroke="#EEE" stroke-width="1.5"/>
  <g transform="translate(40, 40)">
    <rect x="0" y="0" width="260" height="320" rx="16" fill="#FFF1ED"/>
    <g transform="translate(130, 130)"><circle cx="0" cy="0" r="60" fill="#FDBDB5"/><text x="0" y="15" text-anchor="middle" font-size="60">🎂</text></g>
    <text x="130" y="250" text-anchor="middle" fill="#2C2C2C" font-family="'Pretendard','A2G',sans-serif" font-size="16" font-weight="800">어머니 팔순</text>
    <text x="130" y="275" text-anchor="middle" fill="#6B7280" font-family="'Pretendard','A2G',sans-serif" font-size="12">40대 아들이 주문</text>
  </g>
  <g transform="translate(340, 50)">
    <text x="0" y="0" fill="#F5583E" font-family="'Pretendard','A2G',sans-serif" font-size="12" font-weight="800" letter-spacing="2">배경</text>
    <text x="0" y="28" fill="#444444" font-family="'Pretendard','A2G',sans-serif" font-size="14">새벽 다섯 시, 어머니는 30년을 같은 시간에</text>
    <text x="0" y="48" fill="#444444" font-family="'Pretendard','A2G',sans-serif" font-size="14">일어나 도시락을 싸셨습니다.</text>
    <text x="0" y="93" fill="#F5583E" font-family="'Pretendard','A2G',sans-serif" font-size="12" font-weight="800" letter-spacing="2">가사</text>
    <text x="0" y="121" fill="#2C2C2C" font-family="'Pretendard','A2G',sans-serif" font-size="15" font-style="italic">“새벽 다섯 시, 작은 불빛 하나</text>
    <text x="0" y="144" fill="#2C2C2C" font-family="'Pretendard','A2G',sans-serif" font-size="15" font-style="italic">엄마의 손끝에서 하루가 시작됐지”</text>
    <text x="0" y="189" fill="#F5583E" font-family="'Pretendard','A2G',sans-serif" font-size="12" font-weight="800" letter-spacing="2">받은 날</text>
    <text x="0" y="217" fill="#444444" font-family="'Pretendard','A2G',sans-serif" font-size="14">“후렴이 나오자 어머니가 숟가락을 놓으셨어요.</text>
    <text x="0" y="237" fill="#444444" font-family="'Pretendard','A2G',sans-serif" font-size="14">온 가족이 다 울었습니다.”</text>
    <g transform="translate(0, 275)">
      <rect x="0" y="0" width="160" height="42" rx="21" fill="#F5583E"/>
      <text x="80" y="27" text-anchor="middle" fill="#FFF" font-family="'Pretendard','A2G',sans-serif" font-size="13" font-weight="800">전체 듣기 ▶</text>
    </g>
  </g>
</g>
</g>
<g transform="translate(0,3240)"><rect width="1200" height="420" fill="#2C2C2C"/>
<g transform="translate(600, 130)" text-anchor="middle">
  <text x="0" y="0" fill="#F5583E" font-family="'Pretendard','A2G',sans-serif" font-size="100" font-weight="900" opacity="0.3">“</text>
  <text x="0" y="70" fill="#FFF" font-family="'Pretendard','A2G',sans-serif" font-size="30" font-weight="900">아빠 눈물, 태어나서 처음 봤어요.</text>
  <text x="0" y="108" fill="#FFF" font-family="'Pretendard','A2G',sans-serif" font-size="14" opacity="0.7">— 30대 딸, 아버지 생신 선물</text>
</g>
<g transform="translate(240, 260)">
  <rect x="0" y="0" width="340" height="100" rx="16" fill="#FFF" fill-opacity="0.08" stroke="#FFF" stroke-opacity="0.15"/>
  <text x="24" y="36" fill="#FDBDB5" font-family="'Pretendard','A2G',sans-serif" font-size="11" font-weight="800" letter-spacing="2">바쁘다는 핑계</text>
  <text x="24" y="60" fill="#FFF" font-family="'Pretendard','A2G',sans-serif" font-size="14" font-weight="700">“가장 닮고 싶은 사람은 당신이에요”</text>
  <text x="24" y="82" fill="#FFF" font-family="'Pretendard','A2G',sans-serif" opacity="0.5" font-size="12">아버지 생신 · 30대 딸</text>
</g>
<g transform="translate(620, 260)">
  <rect x="0" y="0" width="340" height="100" rx="16" fill="#FFF" fill-opacity="0.08" stroke="#FFF" stroke-opacity="0.15"/>
  <text x="24" y="36" fill="#FDBDB5" font-family="'Pretendard','A2G',sans-serif" font-size="11" font-weight="800" letter-spacing="2">수화기 너머의 핑계</text>
  <text x="24" y="60" fill="#FFF" font-family="'Pretendard','A2G',sans-serif" font-size="14" font-weight="700">“두 분의 40년을 안아드릴게요”</text>
  <text x="24" y="82" fill="#FFF" font-family="'Pretendard','A2G',sans-serif" opacity="0.5" font-size="12">결혼기념일 · 40대 아들</text>
</g>
</g>
<g transform="translate(0,3660)"><rect width="1200" height="560" fill="#FFFFFF"/>
<text x="600" y="80" fill="#F5583E" font-family="'Pretendard','A2G',sans-serif" font-size="13" font-weight="800" letter-spacing="4" text-anchor="middle">HOW IT WORKS</text>
<text x="600" y="130" fill="#2C2C2C" font-family="'Pretendard','A2G',sans-serif" font-size="32" font-weight="900" letter-spacing="-1.5" text-anchor="middle">단 3단계, 2주면 완성됩니다</text>
<path d="M 220 320 L 980 320" stroke="#FDBDB5" stroke-width="2.5" stroke-dasharray="4 8" fill="none"/>
<g transform="translate(140, 200)">
  <rect x="0" y="0" width="260" height="260" rx="24" fill="#FFF" stroke="#FDBDB5" stroke-width="2"/>
  <circle cx="130" cy="0" r="30" fill="#F5583E"/>
  <text x="130" y="7" text-anchor="middle" fill="#FFF" font-family="'Pretendard','A2G',sans-serif" font-size="20" font-weight="900">01</text>
  <text x="130" y="90" text-anchor="middle" font-size="44">🎤</text>
  <text x="130" y="170" text-anchor="middle" fill="#2C2C2C" font-family="'Pretendard','A2G',sans-serif" font-size="19" font-weight="800">목소리 업로드</text>
  <text x="130" y="200" text-anchor="middle" fill="#6B7280" font-family="'Pretendard','A2G',sans-serif" font-size="13">가족 목소리 30초 이상</text>
  <text x="130" y="220" text-anchor="middle" fill="#6B7280" font-family="'Pretendard','A2G',sans-serif" font-size="13">아무 녹음 OK</text>
  <text x="130" y="244" text-anchor="middle" fill="#F5583E" font-family="'Pretendard','A2G',sans-serif" font-size="12" font-weight="700">소요: 5분</text>
</g>
<g transform="translate(470, 200)">
  <rect x="0" y="0" width="260" height="260" rx="24" fill="#FFF" stroke="#FDBDB5" stroke-width="2"/>
  <circle cx="130" cy="0" r="30" fill="#F5583E"/>
  <text x="130" y="7" text-anchor="middle" fill="#FFF" font-family="'Pretendard','A2G',sans-serif" font-size="20" font-weight="900">02</text>
  <text x="130" y="90" text-anchor="middle" font-size="44">✍️</text>
  <text x="130" y="170" text-anchor="middle" fill="#2C2C2C" font-family="'Pretendard','A2G',sans-serif" font-size="19" font-weight="800">사연 작성</text>
  <text x="130" y="200" text-anchor="middle" fill="#6B7280" font-family="'Pretendard','A2G',sans-serif" font-size="13">받는 분과의 추억</text>
  <text x="130" y="220" text-anchor="middle" fill="#6B7280" font-family="'Pretendard','A2G',sans-serif" font-size="13">전하고 싶은 마음을 자유롭게</text>
  <text x="130" y="244" text-anchor="middle" fill="#F5583E" font-family="'Pretendard','A2G',sans-serif" font-size="12" font-weight="700">소요: 10분</text>
</g>
<g transform="translate(800, 200)">
  <rect x="0" y="0" width="260" height="260" rx="24" fill="#FFF" stroke="#FDBDB5" stroke-width="2"/>
  <circle cx="130" cy="0" r="30" fill="#F5583E"/>
  <text x="130" y="7" text-anchor="middle" fill="#FFF" font-family="'Pretendard','A2G',sans-serif" font-size="20" font-weight="900">03</text>
  <text x="130" y="90" text-anchor="middle" font-size="44">🎁</text>
  <text x="130" y="170" text-anchor="middle" fill="#2C2C2C" font-family="'Pretendard','A2G',sans-serif" font-size="19" font-weight="800">노래 + 앨범 수령</text>
  <text x="130" y="200" text-anchor="middle" fill="#6B7280" font-family="'Pretendard','A2G',sans-serif" font-size="13">MP3 + 가사 카드</text>
  <text x="130" y="220" text-anchor="middle" fill="#6B7280" font-family="'Pretendard','A2G',sans-serif" font-size="13">앨범 커버 이미지 함께</text>
  <text x="130" y="244" text-anchor="middle" fill="#F5583E" font-family="'Pretendard','A2G',sans-serif" font-size="12" font-weight="700">완성: 14일 내</text>
</g>
</g>
<g transform="translate(0,4220)"><rect width="1200" height="740" fill="#F8F8F8"/>
<text x="600" y="80" fill="#F5583E" font-family="'Pretendard','A2G',sans-serif" font-size="13" font-weight="800" letter-spacing="4" text-anchor="middle">EARLY BIRD REWARDS</text>
<text x="600" y="130" fill="#2C2C2C" font-family="'Pretendard','A2G',sans-serif" font-size="34" font-weight="900" letter-spacing="-1.5" text-anchor="middle">어버이날 한정, 특가 리워드</text>
<text x="600" y="168" fill="#6B7280" font-family="'Pretendard','A2G',sans-serif" font-size="14" font-weight="500" text-anchor="middle">텀블벅에서만 만나는 가격 · 한 곡 그 이상의 패키지</text>

<g transform="translate(140, 220)">
  <rect x="0" y="0" width="290" height="440" rx="24" fill="#FFF" stroke="#EEE" stroke-width="1.5"/>
  <text x="145" y="55" text-anchor="middle" fill="#6B7280" font-family="'Pretendard','A2G',sans-serif" font-size="13" font-weight="800" letter-spacing="2">BASIC</text>
  <text x="145" y="100" text-anchor="middle" fill="#2C2C2C" font-family="'Pretendard','A2G',sans-serif" font-size="22" font-weight="900">노래 제작</text>
  <text x="145" y="145" text-anchor="middle" fill="#AAAAAA" font-family="'Pretendard','A2G',sans-serif" font-size="14" text-decoration="line-through">29,000원</text>
  <text x="145" y="190" text-anchor="middle" fill="#2C2C2C" font-family="'Pretendard','A2G',sans-serif" font-size="36" font-weight="900">19,900원</text>
  <line x1="30" y1="230" x2="260" y2="230" stroke="#EEE"/>
  <g transform="translate(30, 270)"><g transform="translate(6,-4)"><circle cx="0" cy="0" r="8" fill="#FDBDB5"/><path d="M -4 0 L -1 3 L 5 -3" stroke="#F5583E" stroke-width="2" stroke-linecap="round" fill="none"/></g><text x="24" y="0" fill="#444444" font-family="'Pretendard','A2G',sans-serif" font-size="13">맞춤 노래 1곡 (3~4분)</text></g>
  <g transform="translate(30, 302)"><g transform="translate(6,-4)"><circle cx="0" cy="0" r="8" fill="#FDBDB5"/><path d="M -4 0 L -1 3 L 5 -3" stroke="#F5583E" stroke-width="2" stroke-linecap="round" fill="none"/></g><text x="24" y="0" fill="#444444" font-family="'Pretendard','A2G',sans-serif" font-size="13">MP3 고음질 다운로드</text></g>
  <g transform="translate(30, 334)"><g transform="translate(6,-4)"><circle cx="0" cy="0" r="8" fill="#FDBDB5"/><path d="M -4 0 L -1 3 L 5 -3" stroke="#F5583E" stroke-width="2" stroke-linecap="round" fill="none"/></g><text x="24" y="0" fill="#444444" font-family="'Pretendard','A2G',sans-serif" font-size="13">전체 가사 텍스트</text></g>
  <g transform="translate(30, 366)"><g transform="translate(6,-4)"><circle cx="0" cy="0" r="8" fill="#FDBDB5"/><path d="M -4 0 L -1 3 L 5 -3" stroke="#F5583E" stroke-width="2" stroke-linecap="round" fill="none"/></g><text x="24" y="0" fill="#444444" font-family="'Pretendard','A2G',sans-serif" font-size="13">카카오톡 선물 링크</text></g>
</g>

<g transform="translate(455, 200)">
  <g transform="translate(145, 0)">
    <rect x="-60" y="0" width="120" height="32" rx="16" fill="#F5583E"/>
    <text x="0" y="21" text-anchor="middle" fill="#FFF" font-family="'Pretendard','A2G',sans-serif" font-size="13" font-weight="800">🎁 가장 인기</text>
  </g>
  <rect x="0" y="30" width="290" height="470" rx="24" fill="#FFF" stroke="#F5583E" stroke-width="3"/>
  <text x="145" y="85" text-anchor="middle" fill="#F5583E" font-family="'Pretendard','A2G',sans-serif" font-size="13" font-weight="800" letter-spacing="2">PREMIUM</text>
  <text x="145" y="130" text-anchor="middle" fill="#2C2C2C" font-family="'Pretendard','A2G',sans-serif" font-size="22" font-weight="900">풀 패키지</text>
  <text x="145" y="175" text-anchor="middle" fill="#AAAAAA" font-family="'Pretendard','A2G',sans-serif" font-size="14" text-decoration="line-through">49,000원</text>
  <text x="145" y="220" text-anchor="middle" fill="#F5583E" font-family="'Pretendard','A2G',sans-serif" font-size="40" font-weight="900">34,900원</text>
  <line x1="30" y1="260" x2="260" y2="260" stroke="#FDBDB5"/>
  <g transform="translate(30, 300)"><g transform="translate(6,-4)"><circle cx="0" cy="0" r="8" fill="#F5583E"/><path d="M -4 0 L -1 3 L 5 -3" stroke="#FFF" stroke-width="2" fill="none"/></g><text x="24" y="0" fill="#2C2C2C" font-family="'Pretendard','A2G',sans-serif" font-size="13" font-weight="700">BASIC 모든 혜택</text></g>
  <g transform="translate(30, 332)"><g transform="translate(6,-4)"><circle cx="0" cy="0" r="8" fill="#F5583E"/><path d="M -4 0 L -1 3 L 5 -3" stroke="#FFF" stroke-width="2" fill="none"/></g><text x="24" y="0" fill="#2C2C2C" font-family="'Pretendard','A2G',sans-serif" font-size="13" font-weight="700">가사 카드 이미지 (HD)</text></g>
  <g transform="translate(30, 364)"><g transform="translate(6,-4)"><circle cx="0" cy="0" r="8" fill="#F5583E"/><path d="M -4 0 L -1 3 L 5 -3" stroke="#FFF" stroke-width="2" fill="none"/></g><text x="24" y="0" fill="#2C2C2C" font-family="'Pretendard','A2G',sans-serif" font-size="13" font-weight="700">AI 앨범 커버</text></g>
  <g transform="translate(30, 396)"><g transform="translate(6,-4)"><circle cx="0" cy="0" r="8" fill="#F5583E"/><path d="M -4 0 L -1 3 L 5 -3" stroke="#FFF" stroke-width="2" fill="none"/></g><text x="24" y="0" fill="#2C2C2C" font-family="'Pretendard','A2G',sans-serif" font-size="13" font-weight="700">인쇄용 원본 파일</text></g>
  <g transform="translate(30, 428)"><g transform="translate(6,-4)"><circle cx="0" cy="0" r="8" fill="#F5583E"/><path d="M -4 0 L -1 3 L 5 -3" stroke="#FFF" stroke-width="2" fill="none"/></g><text x="24" y="0" fill="#2C2C2C" font-family="'Pretendard','A2G',sans-serif" font-size="13" font-weight="700">리터치 1회 무료</text></g>
</g>

<g transform="translate(770, 220)">
  <rect x="0" y="0" width="290" height="440" rx="24" fill="#FFF" stroke="#EEE" stroke-width="1.5"/>
  <text x="145" y="55" text-anchor="middle" fill="#F5583E" font-family="'Pretendard','A2G',sans-serif" font-size="13" font-weight="800" letter-spacing="2">LIMITED 30</text>
  <text x="145" y="100" text-anchor="middle" fill="#2C2C2C" font-family="'Pretendard','A2G',sans-serif" font-size="22" font-weight="900">VIP 스페셜</text>
  <text x="145" y="145" text-anchor="middle" fill="#AAAAAA" font-family="'Pretendard','A2G',sans-serif" font-size="14" text-decoration="line-through">79,000원</text>
  <text x="145" y="190" text-anchor="middle" fill="#2C2C2C" font-family="'Pretendard','A2G',sans-serif" font-size="36" font-weight="900">54,900원</text>
  <line x1="30" y1="230" x2="260" y2="230" stroke="#EEE"/>
  <g transform="translate(30, 270)"><g transform="translate(6,-4)"><circle cx="0" cy="0" r="8" fill="#FDBDB5"/><path d="M -4 0 L -1 3 L 5 -3" stroke="#F5583E" stroke-width="2" stroke-linecap="round" fill="none"/></g><text x="24" y="0" fill="#444444" font-family="'Pretendard','A2G',sans-serif" font-size="13">PREMIUM 모든 혜택</text></g>
  <g transform="translate(30, 302)"><g transform="translate(6,-4)"><circle cx="0" cy="0" r="8" fill="#FDBDB5"/><path d="M -4 0 L -1 3 L 5 -3" stroke="#F5583E" stroke-width="2" stroke-linecap="round" fill="none"/></g><text x="24" y="0" fill="#444444" font-family="'Pretendard','A2G',sans-serif" font-size="13">가사 액자 (인쇄·배송)</text></g>
  <g transform="translate(30, 334)"><g transform="translate(6,-4)"><circle cx="0" cy="0" r="8" fill="#FDBDB5"/><path d="M -4 0 L -1 3 L 5 -3" stroke="#F5583E" stroke-width="2" stroke-linecap="round" fill="none"/></g><text x="24" y="0" fill="#444444" font-family="'Pretendard','A2G',sans-serif" font-size="13">우선 제작 (5~7일)</text></g>
  <g transform="translate(30, 366)"><g transform="translate(6,-4)"><circle cx="0" cy="0" r="8" fill="#FDBDB5"/><path d="M -4 0 L -1 3 L 5 -3" stroke="#F5583E" stroke-width="2" stroke-linecap="round" fill="none"/></g><text x="24" y="0" fill="#444444" font-family="'Pretendard','A2G',sans-serif" font-size="13">리터치 2회 무료</text></g>
</g>
</g>
<g transform="translate(0,4960)"><rect width="1200" height="570" fill="#FFFFFF"/>
<text x="600" y="80" fill="#F5583E" font-family="'Pretendard','A2G',sans-serif" font-size="13" font-weight="800" letter-spacing="4" text-anchor="middle">TIMELINE &amp; URGENCY</text>
<text x="600" y="130" fill="#2C2C2C" font-family="'Pretendard','A2G',sans-serif" font-size="32" font-weight="900" letter-spacing="-1.5" text-anchor="middle">어버이날까지, 남은 일정</text>
<g transform="translate(100, 260)">
  <line x1="0" y1="0" x2="1000" y2="0" stroke="#FDBDB5" stroke-width="4" stroke-linecap="round"/>
  <line x1="0" y1="0" x2="250" y2="0" stroke="#F5583E" stroke-width="4" stroke-linecap="round"/>
  <g transform="translate(0, 0)">
    <circle cx="0" cy="0" r="12" fill="#F5583E"/>
    <text x="0" y="-30" text-anchor="middle" fill="#2C2C2C" font-family="'Pretendard','A2G',sans-serif" font-size="14" font-weight="800">4/14</text>
    <text x="0" y="36" text-anchor="middle" fill="#6B7280" font-family="'Pretendard','A2G',sans-serif" font-size="12">펀딩 시작</text>
  </g>
  <g transform="translate(250, 0)">
    <circle cx="0" cy="0" r="18" fill="#F5583E"/>
    <circle cx="0" cy="0" r="6" fill="#FFF"/>
    <text x="0" y="-36" text-anchor="middle" fill="#F5583E" font-family="'Pretendard','A2G',sans-serif" font-size="12" font-weight="900" letter-spacing="2">NOW</text>
    <text x="0" y="44" text-anchor="middle" fill="#F5583E" font-family="'Pretendard','A2G',sans-serif" font-size="13" font-weight="800">19,900원 특가</text>
  </g>
  <g transform="translate(500, 0)">
    <circle cx="0" cy="0" r="12" fill="#FFF" stroke="#FDBDB5" stroke-width="3"/>
    <text x="0" y="-30" text-anchor="middle" fill="#2C2C2C" font-family="'Pretendard','A2G',sans-serif" font-size="14" font-weight="800">4/24</text>
    <text x="0" y="36" text-anchor="middle" fill="#6B7280" font-family="'Pretendard','A2G',sans-serif" font-size="12">주문 마감</text>
  </g>
  <g transform="translate(750, 0)">
    <circle cx="0" cy="0" r="12" fill="#FFF" stroke="#FDBDB5" stroke-width="3"/>
    <text x="0" y="-30" text-anchor="middle" fill="#2C2C2C" font-family="'Pretendard','A2G',sans-serif" font-size="14" font-weight="800">5/1~7</text>
    <text x="0" y="36" text-anchor="middle" fill="#6B7280" font-family="'Pretendard','A2G',sans-serif" font-size="12">제작·배송</text>
  </g>
  <g transform="translate(1000, 0)">
    <circle cx="0" cy="0" r="18" fill="#F5583E"/>
    <path d="M 0 -6 C -4 -10, -10 -6, -10 0 C -10 6, 0 12, 0 12 C 0 12, 10 6, 10 0 C 10 -6, 4 -10, 0 -6 Z" fill="#FFF"/>
    <text x="0" y="-36" text-anchor="middle" fill="#F5583E" font-family="'Pretendard','A2G',sans-serif" font-size="14" font-weight="900">5/8</text>
    <text x="0" y="44" text-anchor="middle" fill="#F5583E" font-family="'Pretendard','A2G',sans-serif" font-size="13" font-weight="800">어버이날</text>
  </g>
</g>
<g transform="translate(600, 450)">
  <rect x="-230" y="0" width="460" height="56" rx="28" fill="#F5583E"/>
  <text x="0" y="22" text-anchor="middle" fill="#FFF" font-family="'Pretendard','A2G',sans-serif" font-size="14" font-weight="600">지금 펀딩하면</text>
  <text x="0" y="44" text-anchor="middle" fill="#FFF" font-family="'Pretendard','A2G',sans-serif" font-size="17" font-weight="900">어버이날 아침, 노래가 도착합니다</text>
</g>
</g>
<g transform="translate(0,5530)"><rect width="1200" height="680" fill="#F8F8F8"/>
<text x="600" y="80" fill="#F5583E" font-family="'Pretendard','A2G',sans-serif" font-size="13" font-weight="800" letter-spacing="4" text-anchor="middle">FAQ</text>
<text x="600" y="130" fill="#2C2C2C" font-family="'Pretendard','A2G',sans-serif" font-size="32" font-weight="900" letter-spacing="-1.5" text-anchor="middle">자주 묻는 질문</text>
<g transform="translate(200, 200)">
<g transform="translate(0,0)">
  <rect x="0" y="0" width="800" height="90" rx="16" fill="#FFF" stroke="#EEE" stroke-width="1.5"/>
  <text x="30" y="36" fill="#F5583E" font-family="'Pretendard','A2G',sans-serif" font-size="13" font-weight="800">Q1.</text>
  <text x="70" y="36" fill="#2C2C2C" font-family="'Pretendard','A2G',sans-serif" font-size="15" font-weight="800">원본 음성은 어떻게 수집하나요?</text>
  <text x="70" y="66" fill="#6B7280" font-family="'Pretendard','A2G',sans-serif" font-size="12">전화 녹음·영상 속 목소리·일상 대화 30초면 OK. 스마트폰 녹음도 가능합니다.</text>
</g><g transform="translate(0,110)">
  <rect x="0" y="0" width="800" height="90" rx="16" fill="#FFF" stroke="#EEE" stroke-width="1.5"/>
  <text x="30" y="36" fill="#F5583E" font-family="'Pretendard','A2G',sans-serif" font-size="13" font-weight="800">Q2.</text>
  <text x="70" y="36" fill="#2C2C2C" font-family="'Pretendard','A2G',sans-serif" font-size="15" font-weight="800">어버이날까지 받으려면 언제까지?</text>
  <text x="70" y="66" fill="#6B7280" font-family="'Pretendard','A2G',sans-serif" font-size="12">4/24(금)까지 주문하시면 5/8 어버이날 이전 배송 보장합니다.</text>
</g><g transform="translate(0,220)">
  <rect x="0" y="0" width="800" height="90" rx="16" fill="#FFF" stroke="#EEE" stroke-width="1.5"/>
  <text x="30" y="36" fill="#F5583E" font-family="'Pretendard','A2G',sans-serif" font-size="13" font-weight="800">Q3.</text>
  <text x="70" y="36" fill="#2C2C2C" font-family="'Pretendard','A2G',sans-serif" font-size="15" font-weight="800">가사가 마음에 안 들면?</text>
  <text x="70" y="66" fill="#6B7280" font-family="'Pretendard','A2G',sans-serif" font-size="12">1회 무료 리터치 가능. 주제·감정 톤·키워드 수정 요청을 받아 재작성해드려요.</text>
</g><g transform="translate(0,330)">
  <rect x="0" y="0" width="800" height="90" rx="16" fill="#FFF" stroke="#EEE" stroke-width="1.5"/>
  <text x="30" y="36" fill="#F5583E" font-family="'Pretendard','A2G',sans-serif" font-size="13" font-weight="800">Q4.</text>
  <text x="70" y="36" fill="#2C2C2C" font-family="'Pretendard','A2G',sans-serif" font-size="15" font-weight="800">개인정보는 안전한가요?</text>
  <text x="70" y="66" fill="#6B7280" font-family="'Pretendard','A2G',sans-serif" font-size="12">업로드 음성은 제작 완료 후 30일 내 삭제. AI 학습 데이터로도 쓰지 않습니다.</text>
</g></g></g>
<g transform="translate(0,6210)"><rect width="1200" height="400" fill="#2C2C2C"/>
<g transform="translate(600, 100)" text-anchor="middle">
  <text x="0" y="0" fill="#FDBDB5" font-family="'Pretendard','A2G',sans-serif" font-size="13" font-weight="800" letter-spacing="4">SOCIAL PROOF</text>
  <text x="0" y="50" fill="#FFF" font-family="'Pretendard','A2G',sans-serif" font-size="30" font-weight="900">숫자로 보는 하이싱</text>
</g>
<g transform="translate(0, 230)">
  <g transform="translate(220, 0)" text-anchor="middle">
    <text x="0" y="0" fill="#FDBDB5" font-family="'Pretendard','A2G',sans-serif" font-size="58" font-weight="900">94%</text>
    <text x="0" y="34" fill="#FFF" font-family="'Pretendard','A2G',sans-serif" font-size="14" font-weight="700">눈물을 흘린 수령자</text>
  </g>
  <g transform="translate(600, 0)" text-anchor="middle">
    <text x="0" y="0" fill="#FDBDB5" font-family="'Pretendard','A2G',sans-serif" font-size="58" font-weight="900">4.9</text>
    <text x="0" y="34" fill="#FFF" font-family="'Pretendard','A2G',sans-serif" font-size="14" font-weight="700">평균 만족도 (5점)</text>
  </g>
  <g transform="translate(980, 0)" text-anchor="middle">
    <text x="0" y="0" fill="#FDBDB5" font-family="'Pretendard','A2G',sans-serif" font-size="58" font-weight="900">2주</text>
    <text x="0" y="34" fill="#FFF" font-family="'Pretendard','A2G',sans-serif" font-size="14" font-weight="700">평균 제작 기간</text>
  </g>
</g>
</g>
<g transform="translate(0,6610)"><rect width="1200" height="720" fill="#FFF1ED"/>
<circle cx="150" cy="100" r="80" fill="#FDBDB5" opacity="0.3"/>
<circle cx="1050" cy="400" r="100" fill="#FDBDB5" opacity="0.25"/>
<g transform="translate(600, 120)" text-anchor="middle">
  <text x="0" y="0" fill="#F5583E" font-family="'Pretendard','A2G',sans-serif" font-size="14" font-weight="800" letter-spacing="4">2026 PARENTS' DAY</text>
  <text x="0" y="70" fill="#2C2C2C" font-family="'Pretendard','A2G',sans-serif" font-size="48" font-weight="900" letter-spacing="-2">이번 어버이날엔</text>
  <text x="0" y="124" fill="#F5583E" font-family="'Pretendard','A2G',sans-serif" font-size="48" font-weight="900" letter-spacing="-2">진심을 전해보세요</text>
</g>
<g transform="translate(600, 320)" text-anchor="middle">
  <text x="0" y="0" fill="#6B7280" font-family="'Pretendard','A2G',sans-serif" font-size="16">얼리버드 특가</text>
  <text x="-130" y="80" fill="#AAAAAA" font-family="'Pretendard','A2G',sans-serif" font-size="20" text-decoration="line-through">29,000원</text>
  <text x="130" y="80" fill="#F5583E" font-family="'Pretendard','A2G',sans-serif" font-size="56" font-weight="900">19,900원</text>
</g>
<g transform="translate(600, 480)" text-anchor="middle">
  <rect x="-180" y="0" width="360" height="76" rx="38" fill="#F5583E"/>
  <text x="0" y="48" text-anchor="middle" fill="#FFF" font-family="'Pretendard','A2G',sans-serif" font-size="20" font-weight="800">지금 펀딩 참여하기 →</text>
</g>
<text x="600" y="600" text-anchor="middle" fill="#AAAAAA" font-family="'Pretendard','A2G',sans-serif" font-size="12">* 5월 8일 어버이날 배송 보장을 위해 4/24(금)까지 주문해주세요</text>
<g transform="translate(600, 660)" text-anchor="middle">
  <text x="0" y="10" text-anchor="middle" fill="#444444" font-family="'Pretendard','A2G',sans-serif" font-size="14" font-weight="800">하이싱 · 목소리로 만드는 노래 선물</text>
  <text x="0" y="34" text-anchor="middle" fill="#AAAAAA" font-family="'Pretendard','A2G',sans-serif" font-size="11">주식회사 이노하이(INNO-HI) · contact@innohi.ai.kr</text>
</g>
</g>
</svg>