<svg xmlns="http://www.w3.org/2000/svg" viewBox="0 0 1200 3600" fill="none">
<defs>

    <linearGradient id="bg1_s0" x1="0" y1="0" x2="1" y2="1">
      <stop offset="0%" stop-color="#FFF9F6"/>
      <stop offset="60%" stop-color="#FFEDE6"/>
      <stop offset="100%" stop-color="#FEDBD6"/>
    </linearGradient>
    <linearGradient id="carnation1_s0" x1="0" y1="0" x2="0" y2="1">
      <stop offset="0%" stop-color="#FA8C7D"/>
      <stop offset="50%" stop-color="#F5583E"/>
      <stop offset="100%" stop-color="#C9371E"/>
    </linearGradient>
    <radialGradient id="glow1_s0" cx="50%" cy="50%" r="50%">
      <stop offset="0%" stop-color="#F5583E" stop-opacity="0.28"/>
      <stop offset="100%" stop-color="#F5583E" stop-opacity="0"/>
    </radialGradient>
    <filter id="softShadow_s0" x="-20%" y="-20%" width="140%" height="140%">
      <feGaussianBlur stdDeviation="12" in="SourceGraphic"/>
    </filter>
  
    <linearGradient id="bg2_s1" x1="0" y1="0" x2="0" y2="1">
      <stop offset="0%" stop-color="#FFFFFF"/>
      <stop offset="100%" stop-color="#FFF5F1"/>
    </linearGradient>
  
    <linearGradient id="skyBg_s3" x1="0" y1="0" x2="0" y2="1">
      <stop offset="0%" stop-color="#FFF9F6"/>
      <stop offset="100%" stop-color="#FFE8E2"/>
    </linearGradient>
    <radialGradient id="warmLight_s3" cx="50%" cy="30%" r="60%">
      <stop offset="0%" stop-color="#FFE8A0" stop-opacity="0.5"/>
      <stop offset="100%" stop-color="#FFE8A0" stop-opacity="0"/>
    </radialGradient>
  
</defs>
<g transform="translate(0,0)">
  
  <rect width="1200" height="800" fill="url(#bg1_s0)"/>

  <!-- Decorative background elements -->
  <circle cx="900" cy="440" r="340" fill="url(#glow1_s0)"/>
  <circle cx="150" cy="700" r="100" fill="#FDBDB5" opacity="0.35"/>
  <circle cx="1080" cy="100" r="60" fill="#FDBDB5" opacity="0.4"/>

  <!-- Diagonal wave line -->
  <path d="M -50 780 Q 300 720 600 760 T 1250 720" stroke="#FDBDB5" stroke-width="2" stroke-opacity="0.4" fill="none" stroke-dasharray="6 8"/>

  <!-- === LEFT: TEXT BLOCK === -->
  <g transform="translate(80, 110)">
    <!-- Date badge -->
    <g>
      <rect x="0" y="0" width="204" height="48" rx="24" fill="#F5583E"/>
      <circle cx="22" cy="24" r="5" fill="#FFF"/>
      <circle cx="22" cy="24" r="2.5" fill="#F5583E"/>
      <text x="40" y="31" fill="#FFF" font-family="'Pretendard','A2G',sans-serif" font-size="15" font-weight="800" letter-spacing="0.5">5월 8일 어버이날 특가</text>
    </g>

    <!-- Subcopy -->
    <text x="0" y="98" fill="#6B7280" font-family="'Pretendard','A2G',sans-serif" font-size="18" font-weight="500">말로 다 못한 마음을, 이제 노래로</text>

    <!-- Main headline -->
    <text x="0" y="168" fill="#2C2C2C" font-family="'Pretendard','A2G',sans-serif" font-size="62" font-weight="900" letter-spacing="-2">
      올해만큼은
    </text>
    <text x="0" y="240" fill="#2C2C2C" font-family="'Pretendard','A2G',sans-serif" font-size="62" font-weight="900" letter-spacing="-2">
      <tspan fill="#F5583E">건강하세요</tspan> 대신
    </text>
    <text x="0" y="312" fill="#2C2C2C" font-family="'Pretendard','A2G',sans-serif" font-size="62" font-weight="900" letter-spacing="-2">
      노래 한 곡
    </text>

    <!-- Description -->
    <text x="0" y="368" fill="#444444" font-family="'Pretendard','A2G',sans-serif" font-size="18" font-weight="400">
      부모님의 목소리로 만드는, 세상에 단 하나뿐인 노래.
    </text>
    <text x="0" y="394" fill="#444444" font-family="'Pretendard','A2G',sans-serif" font-size="18" font-weight="400">
      이번 어버이날, 한 번쯤은 진심을 담아보세요.
    </text>

    <!-- Price anchor -->
    <g transform="translate(0, 440)">
      <!-- Strikethrough original -->
      <text x="0" y="20" fill="#AAAAAA" font-family="'Pretendard','A2G',sans-serif" font-size="18" font-weight="500" text-decoration="line-through">29,000원</text>
      <!-- Discount badge -->
      <g transform="translate(110, 0)">
        <rect x="0" y="4" width="70" height="24" rx="12" fill="#F5583E"/>
        <text x="35" y="21" text-anchor="middle" fill="#FFF" font-family="'Pretendard','A2G',sans-serif" font-size="13" font-weight="800">31% ↓</text>
      </g>
      <!-- Special price -->
      <text x="0" y="78" fill="#F5583E" font-family="'Pretendard','A2G',sans-serif" font-size="52" font-weight="900" letter-spacing="-1">
        19,900원
      </text>
      <text x="200" y="78" fill="#AAAAAA" font-family="'Pretendard','A2G',sans-serif" font-size="16" font-weight="500">얼리버드 특가</text>
    </g>

    <!-- CTA button + secondary -->
    <g transform="translate(0, 560)">
      <rect x="0" y="0" width="260" height="64" rx="32" fill="#F5583E"/>
      <text x="110" y="40" text-anchor="middle" fill="#FFF" font-family="'Pretendard','A2G',sans-serif" font-size="18" font-weight="800">지금 노래 선물하기</text>
      <path d="M 218 32 L 228 32 M 223 27 L 228 32 L 223 37" stroke="#FFF" stroke-width="2.2" stroke-linecap="round" stroke-linejoin="round" fill="none"/>

      <g transform="translate(290, 20)">
        <path d="M 12 0 L 12 24" stroke="#E0E0E0" stroke-width="1"/>
      </g>

      <g transform="translate(320, 18)">
        <circle cx="14" cy="14" r="14" fill="#FFF" stroke="#E0E0E0" stroke-width="1.5"/>
        <path d="M 11 9 L 19 14 L 11 19 Z" fill="#F5583E"/>
        <text x="40" y="18" fill="#2C2C2C" font-family="'Pretendard','A2G',sans-serif" font-size="14" font-weight="700">샘플 듣기</text>
      </g>
    </g>

    <!-- Trust indicators -->
    <g transform="translate(0, 670)">
      <g>
        <circle cx="9" cy="9" r="9" fill="#FEDBD6"/>
        <path d="M 5 9 L 8 12 L 13 6" stroke="#F5583E" stroke-width="2.2" stroke-linecap="round" stroke-linejoin="round" fill="none"/>
        <text x="26" y="14" fill="#444444" font-family="'Pretendard','A2G',sans-serif" font-size="13" font-weight="600">2주 안 완성</text>
      </g>
      <g transform="translate(140, 0)">
        <circle cx="9" cy="9" r="9" fill="#FEDBD6"/>
        <path d="M 5 9 L 8 12 L 13 6" stroke="#F5583E" stroke-width="2.2" stroke-linecap="round" stroke-linejoin="round" fill="none"/>
        <text x="26" y="14" fill="#444444" font-family="'Pretendard','A2G',sans-serif" font-size="13" font-weight="600">가사/앨범 포함</text>
      </g>
      <g transform="translate(300, 0)">
        <circle cx="9" cy="9" r="9" fill="#FEDBD6"/>
        <path d="M 5 9 L 8 12 L 13 6" stroke="#F5583E" stroke-width="2.2" stroke-linecap="round" stroke-linejoin="round" fill="none"/>
        <text x="26" y="14" fill="#444444" font-family="'Pretendard','A2G',sans-serif" font-size="13" font-weight="600">100% 환불 보장</text>
      </g>
    </g>
  </g>

  <!-- === RIGHT: CARNATION + WAVE COMPOSITION === -->
  <g transform="translate(720, 180)">

    <!-- Outer ripple rings -->
    <circle cx="220" cy="220" r="260" stroke="#F5583E" stroke-width="1.5" stroke-opacity="0.15" stroke-dasharray="2 8"/>
    <circle cx="220" cy="220" r="210" stroke="#F5583E" stroke-width="1.5" stroke-opacity="0.25" stroke-dasharray="2 8"/>
    <circle cx="220" cy="220" r="160" stroke="#F5583E" stroke-width="1.5" stroke-opacity="0.35" stroke-dasharray="2 8"/>

    <!-- Radial waveform bars -->
    <g transform="translate(220, 220)">
      <g fill="#F5583E">
        <g transform="rotate(0)"><rect x="-3" y="95" width="6" height="20" rx="3"/></g>
        <g transform="rotate(20)"><rect x="-3" y="95" width="6" height="32" rx="3"/></g>
        <g transform="rotate(40)"><rect x="-3" y="95" width="6" height="14" rx="3"/></g>
        <g transform="rotate(60)"><rect x="-3" y="95" width="6" height="26" rx="3"/></g>
        <g transform="rotate(80)"><rect x="-3" y="95" width="6" height="38" rx="3"/></g>
        <g transform="rotate(100)"><rect x="-3" y="95" width="6" height="18" rx="3"/></g>
        <g transform="rotate(120)"><rect x="-3" y="95" width="6" height="28" rx="3"/></g>
        <g transform="rotate(140)"><rect x="-3" y="95" width="6" height="16" rx="3"/></g>
        <g transform="rotate(160)"><rect x="-3" y="95" width="6" height="34" rx="3"/></g>
        <g transform="rotate(180)"><rect x="-3" y="95" width="6" height="22" rx="3"/></g>
        <g transform="rotate(200)"><rect x="-3" y="95" width="6" height="14" rx="3"/></g>
        <g transform="rotate(220)"><rect x="-3" y="95" width="6" height="30" rx="3"/></g>
        <g transform="rotate(240)"><rect x="-3" y="95" width="6" height="40" rx="3"/></g>
        <g transform="rotate(260)"><rect x="-3" y="95" width="6" height="20" rx="3"/></g>
        <g transform="rotate(280)"><rect x="-3" y="95" width="6" height="26" rx="3"/></g>
        <g transform="rotate(300)"><rect x="-3" y="95" width="6" height="16" rx="3"/></g>
        <g transform="rotate(320)"><rect x="-3" y="95" width="6" height="34" rx="3"/></g>
        <g transform="rotate(340)"><rect x="-3" y="95" width="6" height="22" rx="3"/></g>
      </g>
    </g>

    <!-- Carnation (centerpiece) -->
    <g transform="translate(220, 220)">
      <!-- Stem -->
      <path d="M 0 40 Q -3 80 2 140 Q 0 180 3 220" stroke="#2D7A3E" stroke-width="5" stroke-linecap="round" fill="none"/>
      <!-- Leaves -->
      <path d="M 2 90 Q -30 80 -46 100 Q -32 110 -2 100 Z" fill="#3AA556"/>
      <path d="M 2 90 Q -30 80 -46 100 Q -32 110 -2 100 Z" fill="#2D7A3E" opacity="0.3"/>
      <path d="M 3 130 Q 32 120 48 138 Q 33 148 4 140 Z" fill="#3AA556"/>

      <!-- Flower petals (multiple layers for ruffled carnation) -->
      <g>
        <!-- Outer petals -->
        <circle cx="0" cy="0" r="56" fill="url(#carnation1_s0)"/>
        <!-- Petal bumps around edge -->
        <g fill="#FA8C7D">
          <circle cx="-42" cy="-32" r="18"/>
          <circle cx="42" cy="-32" r="18"/>
          <circle cx="-52" cy="0" r="18"/>
          <circle cx="52" cy="0" r="18"/>
          <circle cx="-42" cy="32" r="18"/>
          <circle cx="42" cy="32" r="18"/>
          <circle cx="0" cy="-44" r="18"/>
          <circle cx="0" cy="44" r="18"/>
        </g>
        <!-- Mid layer -->
        <circle cx="0" cy="0" r="40" fill="#F5583E"/>
        <!-- Inner ruffles -->
        <g fill="#E54428">
          <ellipse cx="-14" cy="-14" rx="16" ry="20" transform="rotate(-25 -14 -14)"/>
          <ellipse cx="14" cy="-14" rx="16" ry="20" transform="rotate(25 14 -14)"/>
          <ellipse cx="-14" cy="14" rx="16" ry="20" transform="rotate(25 -14 14)"/>
          <ellipse cx="14" cy="14" rx="16" ry="20" transform="rotate(-25 14 14)"/>
        </g>
        <!-- Center -->
        <circle cx="0" cy="0" r="20" fill="#C9371E"/>
        <circle cx="-3" cy="-3" r="9" fill="#F5583E" fill-opacity="0.8"/>
        <!-- Musical note inside -->
        <g fill="#FFF" transform="translate(-7, -10)">
          <circle cx="2" cy="16" r="5"/>
          <rect x="5.5" y="-2" width="2" height="18" rx="1"/>
          <path d="M 5.5 -2 Q 15 0 15 8 Q 10 3 5.5 6 Z"/>
        </g>
      </g>
    </g>

    <!-- Floating ornaments -->
    <g opacity="0.9">
      <g transform="translate(40, 60)" fill="#F5583E">
        <circle cx="0" cy="10" r="5"/>
        <rect x="4" y="-8" width="2" height="18" rx="1"/>
        <path d="M 4 -8 Q 14 -6 14 2 Q 9 -2 4 -2 Z"/>
      </g>
      <g transform="translate(380, 50) rotate(15)" fill="#FDBDB5">
        <circle cx="0" cy="10" r="6"/>
        <rect x="4" y="-10" width="2.5" height="20" rx="1.25"/>
      </g>
      <g transform="translate(30, 380) rotate(-12)" fill="#FA8C7D">
        <circle cx="0" cy="10" r="5"/>
        <rect x="4" y="-8" width="2" height="18" rx="1"/>
        <path d="M 4 -8 Q 14 -6 14 2 Q 9 -2 4 -2 Z"/>
      </g>
      <g transform="translate(400, 400)" fill="#F5583E">
        <path d="M 12 2 L 14 10 L 22 12 L 14 14 L 12 22 L 10 14 L 2 12 L 10 10 Z" opacity="0.7"/>
      </g>
    </g>
  </g>

  <!-- Logo top-right -->
  <g transform="translate(1050, 60)">
    <g fill="#F5583E">
      <rect x="0" y="2" width="2.5" height="6" rx="1.25"/>
      <rect x="4" y="-4" width="3" height="18" rx="1.5"/>
      <rect x="9.5" y="-4" width="3" height="18" rx="1.5"/>
      <path d="M 20 -4 Q 21 4 25 5 Q 21 6 20 14 Q 19 6 15 5 Q 19 4 20 -4 Z"/>
      <rect x="28" y="-4" width="3" height="18" rx="1.5"/>
      <rect x="33.5" y="-4" width="3" height="18" rx="1.5"/>
      <rect x="38" y="2" width="2.5" height="6" rx="1.25"/>
    </g>
    <text x="50" y="10" fill="#2C2C2C" font-family="'Pretendard','A2G',sans-serif" font-size="18" font-weight="800">하이싱</text>
  </g>
</g><g transform="translate(0,800)">
  
  <rect width="1200" height="700" fill="url(#bg2_s1)"/>

  <!-- Section label -->
  <text x="600" y="90" text-anchor="middle" fill="#F5583E" font-family="'Pretendard','A2G',sans-serif" font-size="14" font-weight="800" letter-spacing="4">HOW IT WORKS</text>
  <text x="600" y="140" text-anchor="middle" fill="#2C2C2C" font-family="'Pretendard','A2G',sans-serif" font-size="40" font-weight="900" letter-spacing="-1.5">단 3단계, 2주면 완성됩니다</text>
  <text x="600" y="174" text-anchor="middle" fill="#6B7280" font-family="'Pretendard','A2G',sans-serif" font-size="16" font-weight="400">어려운 과정 없이, 평범한 녹음 하나로 시작돼요</text>

  <!-- Connecting dotted line -->
  <path d="M 220 410 L 980 410" stroke="#FDBDB5" stroke-width="2.5" stroke-dasharray="4 8" fill="none"/>

  <!-- === STEP 1 === -->
  <g transform="translate(140, 270)">
    <!-- Card -->
    <rect x="0" y="0" width="260" height="280" rx="24" fill="#FFF" stroke="#FEDBD6" stroke-width="2"/>
    <!-- Number badge -->
    <circle cx="130" cy="0" r="32" fill="#F5583E"/>
    <text x="130" y="8" text-anchor="middle" fill="#FFF" font-family="'Pretendard','A2G',sans-serif" font-size="22" font-weight="900">01</text>

    <!-- Icon: Microphone -->
    <g transform="translate(130, 90)">
      <rect x="-22" y="-38" width="44" height="54" rx="22" fill="#FEDBD6"/>
      <rect x="-16" y="-32" width="32" height="42" rx="16" fill="#F5583E"/>
      <rect x="-3" y="16" width="6" height="14" rx="1" fill="#F5583E"/>
      <rect x="-20" y="30" width="40" height="4" rx="2" fill="#F5583E"/>
      <!-- Sound waves -->
      <path d="M -38 -10 Q -44 0 -38 10" stroke="#FDBDB5" stroke-width="3" stroke-linecap="round" fill="none"/>
      <path d="M 38 -10 Q 44 0 38 10" stroke="#FDBDB5" stroke-width="3" stroke-linecap="round" fill="none"/>
    </g>

    <!-- Text -->
    <text x="130" y="180" text-anchor="middle" fill="#2C2C2C" font-family="'Pretendard','A2G',sans-serif" font-size="20" font-weight="800">목소리 업로드</text>
    <text x="130" y="216" text-anchor="middle" fill="#6B7280" font-family="'Pretendard','A2G',sans-serif" font-size="13" font-weight="500">가족 목소리 30초 이상</text>
    <text x="130" y="234" text-anchor="middle" fill="#6B7280" font-family="'Pretendard','A2G',sans-serif" font-size="13" font-weight="500">전화 녹음·영상·대화 모두 OK</text>
    <text x="130" y="264" text-anchor="middle" fill="#F5583E" font-family="'Pretendard','A2G',sans-serif" font-size="12" font-weight="700">소요: 5분</text>
  </g>

  <!-- === STEP 2 === -->
  <g transform="translate(470, 270)">
    <rect x="0" y="0" width="260" height="280" rx="24" fill="#FFF" stroke="#FEDBD6" stroke-width="2"/>
    <circle cx="130" cy="0" r="32" fill="#F5583E"/>
    <text x="130" y="8" text-anchor="middle" fill="#FFF" font-family="'Pretendard','A2G',sans-serif" font-size="22" font-weight="900">02</text>

    <!-- Icon: Pen + Heart (story) -->
    <g transform="translate(130, 90)">
      <rect x="-32" y="-32" width="64" height="56" rx="6" fill="#FEDBD6"/>
      <line x1="-22" y1="-18" x2="22" y2="-18" stroke="#F5583E" stroke-width="2" stroke-linecap="round"/>
      <line x1="-22" y1="-8" x2="22" y2="-8" stroke="#F5583E" stroke-width="2" stroke-linecap="round"/>
      <line x1="-22" y1="2" x2="10" y2="2" stroke="#F5583E" stroke-width="2" stroke-linecap="round"/>
      <!-- Heart -->
      <path d="M 22 18 C 22 14, 18 10, 14 12 C 10 10, 6 14, 6 18 C 6 24, 14 30, 14 30 C 14 30, 22 24, 22 18 Z" fill="#F5583E"/>
    </g>

    <text x="130" y="180" text-anchor="middle" fill="#2C2C2C" font-family="'Pretendard','A2G',sans-serif" font-size="20" font-weight="800">사연 작성</text>
    <text x="130" y="216" text-anchor="middle" fill="#6B7280" font-family="'Pretendard','A2G',sans-serif" font-size="13" font-weight="500">받는 분과의 추억, 전하고</text>
    <text x="130" y="234" text-anchor="middle" fill="#6B7280" font-family="'Pretendard','A2G',sans-serif" font-size="13" font-weight="500">싶은 마음을 자유롭게 글로</text>
    <text x="130" y="264" text-anchor="middle" fill="#F5583E" font-family="'Pretendard','A2G',sans-serif" font-size="12" font-weight="700">소요: 10분</text>
  </g>

  <!-- === STEP 3 === -->
  <g transform="translate(800, 270)">
    <rect x="0" y="0" width="260" height="280" rx="24" fill="#FFF" stroke="#FEDBD6" stroke-width="2"/>
    <circle cx="130" cy="0" r="32" fill="#F5583E"/>
    <text x="130" y="8" text-anchor="middle" fill="#FFF" font-family="'Pretendard','A2G',sans-serif" font-size="22" font-weight="900">03</text>

    <!-- Icon: Music/Gift -->
    <g transform="translate(130, 90)">
      <!-- Gift box -->
      <rect x="-30" y="-18" width="60" height="40" rx="4" fill="#FEDBD6"/>
      <rect x="-30" y="-22" width="60" height="10" rx="2" fill="#F5583E"/>
      <rect x="-4" y="-22" width="8" height="44" fill="#C9371E"/>
      <!-- Ribbon top bow -->
      <path d="M -12 -28 Q -2 -36 0 -22 Q 2 -36 12 -28 Q 10 -22 0 -22 Q -10 -22 -12 -28 Z" fill="#F5583E"/>
      <!-- Note popping out -->
      <g transform="translate(8, -40)">
        <circle cx="0" cy="8" r="4" fill="#C9371E"/>
        <rect x="3" y="-4" width="2" height="12" rx="1" fill="#C9371E"/>
        <path d="M 3 -4 Q 10 -2 10 4 Q 6 0 3 2 Z" fill="#C9371E"/>
      </g>
    </g>

    <text x="130" y="180" text-anchor="middle" fill="#2C2C2C" font-family="'Pretendard','A2G',sans-serif" font-size="20" font-weight="800">노래 + 앨범 수령</text>
    <text x="130" y="216" text-anchor="middle" fill="#6B7280" font-family="'Pretendard','A2G',sans-serif" font-size="13" font-weight="500">MP3 파일 + 가사 카드</text>
    <text x="130" y="234" text-anchor="middle" fill="#6B7280" font-family="'Pretendard','A2G',sans-serif" font-size="13" font-weight="500">앨범 커버 이미지 함께</text>
    <text x="130" y="264" text-anchor="middle" fill="#F5583E" font-family="'Pretendard','A2G',sans-serif" font-size="12" font-weight="700">완성: 14일 내</text>
  </g>

  <!-- Bottom note -->
  <text x="600" y="630" text-anchor="middle" fill="#AAAAAA" font-family="'Pretendard','A2G',sans-serif" font-size="13" font-weight="500">어버이날(5월 8일)까지 배송 받으시려면 4월 24일(금)까지 주문해주세요</text>
</g><g transform="translate(0,1500)">
  <rect width="1200" height="800" fill="#FFF9F6"/>

  <!-- Section header -->
  <text x="600" y="90" text-anchor="middle" fill="#F5583E" font-family="'Pretendard','A2G',sans-serif" font-size="14" font-weight="800" letter-spacing="4">EARLY BIRD REWARDS</text>
  <text x="600" y="140" text-anchor="middle" fill="#2C2C2C" font-family="'Pretendard','A2G',sans-serif" font-size="40" font-weight="900" letter-spacing="-1.5">어버이날 한정, 특가 리워드</text>
  <text x="600" y="174" text-anchor="middle" fill="#6B7280" font-family="'Pretendard','A2G',sans-serif" font-size="16" font-weight="400">텀블벅에서만 만날 수 있는 가격</text>

  <!-- === LEFT: Basic Reward === -->
  <g transform="translate(140, 240)">
    <rect x="0" y="0" width="290" height="460" rx="24" fill="#FFF" stroke="#EEEEEE" stroke-width="1.5"/>

    <!-- Icon header -->
    <g transform="translate(145, 50)">
      <circle cx="0" cy="0" r="32" fill="#F5F5F5"/>
      <!-- Note icon -->
      <g fill="#6B7280" transform="translate(-10, -14)">
        <circle cx="3" cy="20" r="5"/>
        <rect x="6.5" y="-2" width="2.5" height="22" rx="1.25"/>
        <path d="M 6.5 -2 Q 18 0 18 10 Q 12 4 6.5 6 Z"/>
      </g>
    </g>

    <text x="145" y="130" text-anchor="middle" fill="#6B7280" font-family="'Pretendard','A2G',sans-serif" font-size="13" font-weight="700" letter-spacing="1">BASIC</text>
    <text x="145" y="170" text-anchor="middle" fill="#2C2C2C" font-family="'Pretendard','A2G',sans-serif" font-size="24" font-weight="900">노래 제작</text>

    <!-- Price -->
    <g transform="translate(145, 210)">
      <text x="0" y="0" text-anchor="middle" fill="#AAAAAA" font-family="'Pretendard','A2G',sans-serif" font-size="14" text-decoration="line-through">29,000원</text>
      <text x="0" y="48" text-anchor="middle" fill="#2C2C2C" font-family="'Pretendard','A2G',sans-serif" font-size="36" font-weight="900">19,900원</text>
    </g>

    <line x1="30" y1="300" x2="260" y2="300" stroke="#EEEEEE" stroke-width="1"/>

    <!-- Features -->
    <g transform="translate(30, 330)" fill="#444444" font-family="'Pretendard','A2G',sans-serif" font-size="13">
      <g><circle cx="6" cy="-4" r="6" fill="#FEDBD6"/><path d="M 3 -4 L 5 -2 L 9 -6" stroke="#F5583E" stroke-width="1.8" stroke-linecap="round" fill="none"/><text x="20" y="0">맞춤 노래 1곡 (3~4분)</text></g>
      <g transform="translate(0, 26)"><circle cx="6" cy="-4" r="6" fill="#FEDBD6"/><path d="M 3 -4 L 5 -2 L 9 -6" stroke="#F5583E" stroke-width="1.8" stroke-linecap="round" fill="none"/><text x="20" y="0">MP3 파일 제공</text></g>
      <g transform="translate(0, 52)"><circle cx="6" cy="-4" r="6" fill="#FEDBD6"/><path d="M 3 -4 L 5 -2 L 9 -6" stroke="#F5583E" stroke-width="1.8" stroke-linecap="round" fill="none"/><text x="20" y="0">가사 텍스트 포함</text></g>
      <g transform="translate(0, 78)"><circle cx="6" cy="-4" r="6" fill="#FEDBD6"/><path d="M 3 -4 L 5 -2 L 9 -6" stroke="#F5583E" stroke-width="1.8" stroke-linecap="round" fill="none"/><text x="20" y="0">카카오톡 선물 링크</text></g>
    </g>
  </g>

  <!-- === CENTER: Best Reward (highlighted) === -->
  <g transform="translate(455, 210)">
    <!-- Recommended badge -->
    <g transform="translate(145, 0)">
      <rect x="-60" y="0" width="120" height="32" rx="16" fill="#F5583E"/>
      <text x="0" y="21" text-anchor="middle" fill="#FFF" font-family="'Pretendard','A2G',sans-serif" font-size="13" font-weight="800">🎁 가장 인기</text>
    </g>

    <rect x="0" y="30" width="290" height="480" rx="24" fill="#FFF" stroke="#F5583E" stroke-width="2.5" filter="drop-shadow(0 20px 40px rgba(245,88,62,0.15))"/>

    <!-- Icon header -->
    <g transform="translate(145, 90)">
      <circle cx="0" cy="0" r="36" fill="#FEDBD6"/>
      <g fill="#F5583E" transform="translate(-14, -18)">
        <circle cx="3" cy="22" r="6"/>
        <rect x="7" y="-2" width="3" height="24" rx="1.5"/>
        <path d="M 7 -2 Q 20 0 20 10 Q 14 4 7 6 Z"/>
        <!-- heart -->
        <path d="M 30 26 C 30 22, 26 18, 22 20 C 18 18, 14 22, 14 26 C 14 32, 22 38, 22 38 C 22 38, 30 32, 30 26 Z" fill="#C9371E"/>
      </g>
    </g>

    <text x="145" y="180" text-anchor="middle" fill="#F5583E" font-family="'Pretendard','A2G',sans-serif" font-size="13" font-weight="800" letter-spacing="1">PREMIUM</text>
    <text x="145" y="220" text-anchor="middle" fill="#2C2C2C" font-family="'Pretendard','A2G',sans-serif" font-size="24" font-weight="900">풀 패키지</text>

    <g transform="translate(145, 260)">
      <text x="0" y="0" text-anchor="middle" fill="#AAAAAA" font-family="'Pretendard','A2G',sans-serif" font-size="14" text-decoration="line-through">49,000원</text>
      <text x="0" y="48" text-anchor="middle" fill="#F5583E" font-family="'Pretendard','A2G',sans-serif" font-size="40" font-weight="900">34,900원</text>
    </g>

    <line x1="30" y1="348" x2="260" y2="348" stroke="#FEDBD6" stroke-width="1"/>

    <g transform="translate(30, 380)" fill="#2C2C2C" font-family="'Pretendard','A2G',sans-serif" font-size="13" font-weight="600">
      <g><circle cx="6" cy="-4" r="6" fill="#F5583E"/><path d="M 3 -4 L 5 -2 L 9 -6" stroke="#FFF" stroke-width="1.8" stroke-linecap="round" fill="none"/><text x="20" y="0">BASIC 모든 혜택 포함</text></g>
      <g transform="translate(0, 26)"><circle cx="6" cy="-4" r="6" fill="#F5583E"/><path d="M 3 -4 L 5 -2 L 9 -6" stroke="#FFF" stroke-width="1.8" stroke-linecap="round" fill="none"/><text x="20" y="0">가사 카드 이미지 (고해상도)</text></g>
      <g transform="translate(0, 52)"><circle cx="6" cy="-4" r="6" fill="#F5583E"/><path d="M 3 -4 L 5 -2 L 9 -6" stroke="#FFF" stroke-width="1.8" stroke-linecap="round" fill="none"/><text x="20" y="0">AI 앨범 커버 이미지</text></g>
      <g transform="translate(0, 78)"><circle cx="6" cy="-4" r="6" fill="#F5583E"/><path d="M 3 -4 L 5 -2 L 9 -6" stroke="#FFF" stroke-width="1.8" stroke-linecap="round" fill="none"/><text x="20" y="0">인쇄용 원본 파일 제공</text></g>
    </g>
  </g>

  <!-- === RIGHT: Limited Reward === -->
  <g transform="translate(770, 240)">
    <rect x="0" y="0" width="290" height="460" rx="24" fill="#FFF" stroke="#EEEEEE" stroke-width="1.5"/>

    <g transform="translate(145, 50)">
      <circle cx="0" cy="0" r="32" fill="#FEDBD6"/>
      <g transform="translate(-16, -16)" fill="#F5583E">
        <path d="M 16 0 L 18 10 L 28 12 L 18 14 L 16 24 L 14 14 L 4 12 L 14 10 Z"/>
        <path d="M 4 20 L 5 25 L 10 26 L 5 27 L 4 32 L 3 27 L -2 26 L 3 25 Z"/>
      </g>
    </g>

    <text x="145" y="130" text-anchor="middle" fill="#F5583E" font-family="'Pretendard','A2G',sans-serif" font-size="13" font-weight="800" letter-spacing="1">LIMITED 30</text>
    <text x="145" y="170" text-anchor="middle" fill="#2C2C2C" font-family="'Pretendard','A2G',sans-serif" font-size="24" font-weight="900">VIP 스페셜</text>

    <g transform="translate(145, 210)">
      <text x="0" y="0" text-anchor="middle" fill="#AAAAAA" font-family="'Pretendard','A2G',sans-serif" font-size="14" text-decoration="line-through">79,000원</text>
      <text x="0" y="48" text-anchor="middle" fill="#2C2C2C" font-family="'Pretendard','A2G',sans-serif" font-size="36" font-weight="900">54,900원</text>
    </g>

    <line x1="30" y1="300" x2="260" y2="300" stroke="#EEEEEE" stroke-width="1"/>

    <g transform="translate(30, 330)" fill="#444444" font-family="'Pretendard','A2G',sans-serif" font-size="13">
      <g><circle cx="6" cy="-4" r="6" fill="#FEDBD6"/><path d="M 3 -4 L 5 -2 L 9 -6" stroke="#F5583E" stroke-width="1.8" stroke-linecap="round" fill="none"/><text x="20" y="0">PREMIUM 모든 혜택 포함</text></g>
      <g transform="translate(0, 26)"><circle cx="6" cy="-4" r="6" fill="#FEDBD6"/><path d="M 3 -4 L 5 -2 L 9 -6" stroke="#F5583E" stroke-width="1.8" stroke-linecap="round" fill="none"/><text x="20" y="0">가사 액자 (인쇄·배송 포함)</text></g>
      <g transform="translate(0, 52)"><circle cx="6" cy="-4" r="6" fill="#FEDBD6"/><path d="M 3 -4 L 5 -2 L 9 -6" stroke="#F5583E" stroke-width="1.8" stroke-linecap="round" fill="none"/><text x="20" y="0">우선 제작 (5~7일 완성)</text></g>
      <g transform="translate(0, 78)"><circle cx="6" cy="-4" r="6" fill="#FEDBD6"/><path d="M 3 -4 L 5 -2 L 9 -6" stroke="#F5583E" stroke-width="1.8" stroke-linecap="round" fill="none"/><text x="20" y="0">리터치 1회 무료</text></g>
    </g>
  </g>

  <!-- Bottom note -->
  <text x="600" y="760" text-anchor="middle" fill="#AAAAAA" font-family="'Pretendard','A2G',sans-serif" font-size="13">* 모든 리워드는 어버이날 이전 배송 보장 (4/24까지 주문 시)</text>
</g><g transform="translate(0,2300)">
  
  <rect width="1200" height="700" fill="url(#skyBg_s3)"/>
  <ellipse cx="600" cy="400" rx="700" ry="300" fill="url(#warmLight_s3)"/>

  <!-- Ground/platform -->
  <ellipse cx="600" cy="640" rx="550" ry="30" fill="#F5583E" opacity="0.1"/>

  <!-- Floating music notes background -->
  <g opacity="0.5">
    <g transform="translate(100, 120)" fill="#FDBDB5">
      <circle cx="0" cy="10" r="6"/>
      <rect x="4" y="-10" width="2.5" height="20" rx="1.25"/>
    </g>
    <g transform="translate(1080, 160) rotate(15)" fill="#FA8C7D">
      <circle cx="0" cy="10" r="8"/>
      <rect x="6" y="-14" width="3" height="24" rx="1.5"/>
      <path d="M 6 -14 Q 20 -12 20 -4 Q 12 -10 6 -8 Z"/>
    </g>
    <g transform="translate(220, 380) rotate(-10)" fill="#FDBDB5">
      <circle cx="0" cy="10" r="5"/>
      <rect x="4" y="-8" width="2" height="18" rx="1"/>
    </g>
    <g transform="translate(960, 440) rotate(20)" fill="#FA8C7D">
      <circle cx="0" cy="10" r="7"/>
      <rect x="5" y="-12" width="2.5" height="22" rx="1.25"/>
    </g>
  </g>

  <!-- === FAMILY SILHOUETTE SCENE === -->
  <!-- Center: speakers/gift vinyl disc -->
  <g transform="translate(600, 470)">
    <!-- Vinyl record -->
    <circle cx="0" cy="0" r="90" fill="#2C2C2C"/>
    <circle cx="0" cy="0" r="90" stroke="#444" stroke-width="0.5" fill="none"/>
    <circle cx="0" cy="0" r="72" stroke="#555" stroke-width="0.5" fill="none"/>
    <circle cx="0" cy="0" r="54" stroke="#555" stroke-width="0.5" fill="none"/>
    <circle cx="0" cy="0" r="38" fill="#F5583E"/>
    <circle cx="0" cy="0" r="38" stroke="#C9371E" stroke-width="1" fill="none"/>
    <text x="0" y="-4" text-anchor="middle" fill="#FFF" font-family="'Pretendard','A2G',sans-serif" font-size="10" font-weight="800">하이싱</text>
    <text x="0" y="10" text-anchor="middle" fill="#FFF" font-family="'Pretendard','A2G',sans-serif" font-size="7" opacity="0.8">FAMILY SONG</text>
    <circle cx="0" cy="0" r="5" fill="#2C2C2C"/>
    <!-- Sound waves from disc -->
    <g fill="none" stroke="#F5583E" stroke-opacity="0.4" stroke-width="2">
      <path d="M -130 -20 Q -140 0 -130 20"/>
      <path d="M -150 -40 Q -164 0 -150 40"/>
      <path d="M 130 -20 Q 140 0 130 20"/>
      <path d="M 150 -40 Q 164 0 150 40"/>
    </g>
  </g>

  <!-- === Left: Father figure (silhouette with warm fill) === -->
  <g transform="translate(360, 310)">
    <!-- Shadow -->
    <ellipse cx="0" cy="240" rx="60" ry="6" fill="#C9371E" opacity="0.15"/>
    <!-- Body -->
    <path d="M -35 60 Q -40 140 -30 230 L 30 230 Q 40 140 35 60 Z" fill="#F5583E"/>
    <!-- Head -->
    <circle cx="0" cy="30" r="38" fill="#FDBDB5"/>
    <!-- Hair -->
    <path d="M -32 14 Q -20 -4 0 -6 Q 20 -4 32 14 Q 28 2 0 0 Q -28 2 -32 14 Z" fill="#6B7280"/>
    <!-- Glasses -->
    <circle cx="-12" cy="30" r="7" stroke="#2C2C2C" stroke-width="1.5" fill="none"/>
    <circle cx="12" cy="30" r="7" stroke="#2C2C2C" stroke-width="1.5" fill="none"/>
    <line x1="-5" y1="30" x2="5" y2="30" stroke="#2C2C2C" stroke-width="1.5"/>
    <!-- Smile -->
    <path d="M -8 46 Q 0 52 8 46" stroke="#2C2C2C" stroke-width="1.8" stroke-linecap="round" fill="none"/>
    <!-- Shirt collar -->
    <path d="M -18 70 L 0 88 L 18 70 L 10 66 L 0 70 L -10 66 Z" fill="#FFF" opacity="0.9"/>
    <!-- Heart emoji above head -->
    <g transform="translate(-50, -20)" opacity="0.85">
      <path d="M 10 8 C 10 4, 6 0, 2 2 C -2 0, -6 4, -6 8 C -6 14, 2 20, 2 20 C 2 20, 10 14, 10 8 Z" fill="#F5583E"/>
    </g>
  </g>

  <!-- === Right: Mother figure === -->
  <g transform="translate(840, 310)">
    <!-- Shadow -->
    <ellipse cx="0" cy="240" rx="60" ry="6" fill="#C9371E" opacity="0.15"/>
    <!-- Body (skirt) -->
    <path d="M -40 60 Q -45 140 -50 230 L 50 230 Q 45 140 40 60 Z" fill="#FA8C7D"/>
    <!-- Head -->
    <circle cx="0" cy="30" r="38" fill="#FDBDB5"/>
    <!-- Hair (bun) -->
    <path d="M -32 20 Q -32 -8 0 -10 Q 32 -8 32 20 Q 32 10 0 10 Q -32 10 -32 20 Z" fill="#C9371E"/>
    <circle cx="0" cy="-12" r="10" fill="#C9371E"/>
    <!-- Smile -->
    <path d="M -8 46 Q 0 52 8 46" stroke="#2C2C2C" stroke-width="1.8" stroke-linecap="round" fill="none"/>
    <!-- Eyes -->
    <path d="M -12 30 Q -10 28 -8 30" stroke="#2C2C2C" stroke-width="1.8" stroke-linecap="round" fill="none"/>
    <path d="M 8 30 Q 10 28 12 30" stroke="#2C2C2C" stroke-width="1.8" stroke-linecap="round" fill="none"/>
    <!-- Cheek blush -->
    <circle cx="-18" cy="40" r="4" fill="#F5583E" opacity="0.35"/>
    <circle cx="18" cy="40" r="4" fill="#F5583E" opacity="0.35"/>
    <!-- Carnation on chest -->
    <g transform="translate(0, 90)">
      <circle cx="0" cy="0" r="10" fill="#C9371E"/>
      <circle cx="-5" cy="-3" r="4" fill="#F5583E"/>
      <circle cx="5" cy="-3" r="4" fill="#F5583E"/>
      <circle cx="-5" cy="3" r="4" fill="#F5583E"/>
      <circle cx="5" cy="3" r="4" fill="#F5583E"/>
    </g>
    <!-- Musical note above -->
    <g transform="translate(44, -16) rotate(15)" opacity="0.85">
      <circle cx="0" cy="8" r="5" fill="#F5583E"/>
      <rect x="4" y="-8" width="2" height="16" rx="1" fill="#F5583E"/>
      <path d="M 4 -8 Q 12 -6 12 0 Q 8 -4 4 -4 Z" fill="#F5583E"/>
    </g>
  </g>

  <!-- === TEXT OVERLAY === -->
  <g transform="translate(600, 110)" text-anchor="middle">
    <text x="0" y="0" fill="#F5583E" font-family="'Pretendard','A2G',sans-serif" font-size="14" font-weight="800" letter-spacing="4">WHY HI-SING</text>
    <text x="0" y="50" fill="#2C2C2C" font-family="'Pretendard','A2G',sans-serif" font-size="38" font-weight="900" letter-spacing="-1.5">말로 못 전한 마음,</text>
    <text x="0" y="96" fill="#2C2C2C" font-family="'Pretendard','A2G',sans-serif" font-size="38" font-weight="900" letter-spacing="-1.5">노래는 대신 전해줍니다</text>
    <text x="0" y="140" fill="#6B7280" font-family="'Pretendard','A2G',sans-serif" font-size="15" font-weight="400">가족 목소리 하나로 부모님께 평생 기억될 순간을.</text>
  </g>

  <!-- Bottom stat -->
  <g transform="translate(600, 660)" text-anchor="middle">
    <text x="0" y="0" fill="#F5583E" font-family="'Pretendard','A2G',sans-serif" font-size="14" font-weight="700">
      <tspan font-weight="900" font-size="18">94%</tspan> 의 수령자가 눈물을 흘렸습니다
    </text>
  </g>
</g><g transform="translate(0,3000)">
  <rect width="1200" height="600" fill="#FFF"/>

  <!-- Header -->
  <text x="600" y="80" text-anchor="middle" fill="#F5583E" font-family="'Pretendard','A2G',sans-serif" font-size="14" font-weight="800" letter-spacing="4">TIMELINE</text>
  <text x="600" y="128" text-anchor="middle" fill="#2C2C2C" font-family="'Pretendard','A2G',sans-serif" font-size="36" font-weight="900" letter-spacing="-1.5">어버이날까지 남은 일정</text>

  <!-- Timeline bar -->
  <g transform="translate(100, 280)">
    <!-- Line -->
    <line x1="0" y1="0" x2="1000" y2="0" stroke="#FEDBD6" stroke-width="4" stroke-linecap="round"/>
    <!-- Progress (filled up to 'NOW') -->
    <line x1="0" y1="0" x2="250" y2="0" stroke="#F5583E" stroke-width="4" stroke-linecap="round"/>

    <!-- Milestone 1: Launch -->
    <g transform="translate(0, 0)">
      <circle cx="0" cy="0" r="12" fill="#F5583E"/>
      <circle cx="0" cy="0" r="20" fill="#F5583E" fill-opacity="0.2"/>
      <text x="0" y="-40" text-anchor="middle" fill="#2C2C2C" font-family="'Pretendard','A2G',sans-serif" font-size="14" font-weight="800">4/14</text>
      <text x="0" y="-22" text-anchor="middle" fill="#AAAAAA" font-family="'Pretendard','A2G',sans-serif" font-size="11" font-weight="500">월</text>
      <text x="0" y="40" text-anchor="middle" fill="#2C2C2C" font-family="'Pretendard','A2G',sans-serif" font-size="14" font-weight="700">펀딩 시작</text>
      <text x="0" y="58" text-anchor="middle" fill="#6B7280" font-family="'Pretendard','A2G',sans-serif" font-size="11">얼리버드 오픈</text>
    </g>

    <!-- Milestone 2: NOW / Early bird deadline -->
    <g transform="translate(250, 0)">
      <circle cx="0" cy="0" r="16" fill="#F5583E"/>
      <circle cx="0" cy="0" r="24" fill="#F5583E" fill-opacity="0.2"/>
      <circle cx="0" cy="0" r="6" fill="#FFF"/>
      <text x="0" y="-48" text-anchor="middle" fill="#F5583E" font-family="'Pretendard','A2G',sans-serif" font-size="12" font-weight="900" letter-spacing="2">NOW</text>
      <text x="0" y="-26" text-anchor="middle" fill="#2C2C2C" font-family="'Pretendard','A2G',sans-serif" font-size="14" font-weight="800">진행 중</text>
      <text x="0" y="46" text-anchor="middle" fill="#F5583E" font-family="'Pretendard','A2G',sans-serif" font-size="14" font-weight="800">특가 19,900원</text>
      <text x="0" y="64" text-anchor="middle" fill="#6B7280" font-family="'Pretendard','A2G',sans-serif" font-size="11">100명 한정</text>
    </g>

    <!-- Milestone 3: Order deadline -->
    <g transform="translate(500, 0)">
      <circle cx="0" cy="0" r="12" fill="#FFF" stroke="#FDBDB5" stroke-width="3"/>
      <text x="0" y="-40" text-anchor="middle" fill="#2C2C2C" font-family="'Pretendard','A2G',sans-serif" font-size="14" font-weight="800">4/24</text>
      <text x="0" y="-22" text-anchor="middle" fill="#AAAAAA" font-family="'Pretendard','A2G',sans-serif" font-size="11" font-weight="500">금</text>
      <text x="0" y="40" text-anchor="middle" fill="#2C2C2C" font-family="'Pretendard','A2G',sans-serif" font-size="14" font-weight="700">주문 마감</text>
      <text x="0" y="58" text-anchor="middle" fill="#6B7280" font-family="'Pretendard','A2G',sans-serif" font-size="11">어버이날 배송 보장선</text>
    </g>

    <!-- Milestone 4: Production -->
    <g transform="translate(750, 0)">
      <circle cx="0" cy="0" r="12" fill="#FFF" stroke="#FDBDB5" stroke-width="3"/>
      <text x="0" y="-40" text-anchor="middle" fill="#2C2C2C" font-family="'Pretendard','A2G',sans-serif" font-size="14" font-weight="800">5/1~5/7</text>
      <text x="0" y="40" text-anchor="middle" fill="#2C2C2C" font-family="'Pretendard','A2G',sans-serif" font-size="14" font-weight="700">제작·배송</text>
      <text x="0" y="58" text-anchor="middle" fill="#6B7280" font-family="'Pretendard','A2G',sans-serif" font-size="11">순차 완성·발송</text>
    </g>

    <!-- Milestone 5: Parents' Day -->
    <g transform="translate(1000, 0)">
      <!-- Special badge -->
      <circle cx="0" cy="0" r="18" fill="#F5583E"/>
      <circle cx="0" cy="0" r="28" fill="#F5583E" fill-opacity="0.15"/>
      <!-- Heart icon inside -->
      <path d="M 0 -6 C -4 -10, -10 -6, -10 0 C -10 6, 0 12, 0 12 C 0 12, 10 6, 10 0 C 10 -6, 4 -10, 0 -6 Z" fill="#FFF"/>
      <text x="0" y="-48" text-anchor="middle" fill="#F5583E" font-family="'Pretendard','A2G',sans-serif" font-size="14" font-weight="900">5/8</text>
      <text x="0" y="-26" text-anchor="middle" fill="#F5583E" font-family="'Pretendard','A2G',sans-serif" font-size="12" font-weight="700">어버이날</text>
      <text x="0" y="46" text-anchor="middle" fill="#F5583E" font-family="'Pretendard','A2G',sans-serif" font-size="14" font-weight="800">노래 선물하는 날</text>
    </g>
  </g>

  <!-- Urgency banner -->
  <g transform="translate(600, 490)">
    <rect x="-230" y="0" width="460" height="56" rx="28" fill="#F5583E"/>
    <text x="0" y="22" text-anchor="middle" fill="#FFF" font-family="'Pretendard','A2G',sans-serif" font-size="14" font-weight="600">지금 펀딩하면</text>
    <text x="0" y="44" text-anchor="middle" fill="#FFF" font-family="'Pretendard','A2G',sans-serif" font-size="18" font-weight="900">어버이날 아침, 노래가 도착합니다</text>
  </g>
</g>
</svg>